<svg xmlns="http://www.w3.org/2000/svg" width="1422" height="64" viewBox="0 0 1422 64">
  <g id="Group_37" data-name="Group 37" transform="translate(-5858 -12098)">
    <path id="Rectangle-4" d="M10,2a8,8,0,0,0-8,8V54a8,8,0,0,0,8,8H172a8,8,0,0,0,8-8V10a8,8,0,0,0-8-8Zm0-2H172a10,10,0,0,1,10,10V54a10,10,0,0,1-10,10H10A10,10,0,0,1,0,54V10A10,10,0,0,1,10,0Z" transform="translate(5858 12098)" fill="#b3b3b3"/>
    <path id="Rectangle-4-Copy-4" d="M732,2a8,8,0,0,0-8,8V54a8,8,0,0,0,8,8H894a8,8,0,0,0,8-8V10a8,8,0,0,0-8-8Zm0-2H894a10,10,0,0,1,10,10V54a10,10,0,0,1-10,10H732a10,10,0,0,1-10-10V10A10,10,0,0,1,732,0Z" transform="translate(5858 12098)" fill="#a42a6a"/>
    <path id="Rectangle-4-Copy" d="M215,2a8,8,0,0,0-8,8V54a8,8,0,0,0,8,8H331a8,8,0,0,0,8-8V10a8,8,0,0,0-8-8Zm0-2H331a10,10,0,0,1,10,10V54a10,10,0,0,1-10,10H215a10,10,0,0,1-10-10V10A10,10,0,0,1,215,0Z" transform="translate(5858 12098)" fill="#b3b3b3"/>
    <path id="Rectangle-4-Copy-5" d="M937,2a8,8,0,0,0-8,8V54a8,8,0,0,0,8,8h116a8,8,0,0,0,8-8V10a8,8,0,0,0-8-8Zm0-2h116a10,10,0,0,1,10,10V54a10,10,0,0,1-10,10H937a10,10,0,0,1-10-10V10A10,10,0,0,1,937,0Z" transform="translate(5858 12098)" fill="#a42a6a"/>
    <path id="Rectangle-4-Copy-2" d="M375,2a8,8,0,0,0-8,8V54a8,8,0,0,0,8,8H511a8,8,0,0,0,8-8V10a8,8,0,0,0-8-8Zm0-2H511a10,10,0,0,1,10,10V54a10,10,0,0,1-10,10H375a10,10,0,0,1-10-10V10A10,10,0,0,1,375,0Z" transform="translate(5858 12098)" fill="#b3b3b3"/>
    <path id="Rectangle-4-Copy-6" d="M1097,2a8,8,0,0,0-8,8V54a8,8,0,0,0,8,8h136a8,8,0,0,0,8-8V10a8,8,0,0,0-8-8Zm0-2h136a10,10,0,0,1,10,10V54a10,10,0,0,1-10,10H1097a10,10,0,0,1-10-10V10A10,10,0,0,1,1097,0Z" transform="translate(5858 12098)" fill="#a42a6a"/>
    <path id="Rectangle-4-Copy-3" d="M554,2a8,8,0,0,0-8,8V54a8,8,0,0,0,8,8H690a8,8,0,0,0,8-8V10a8,8,0,0,0-8-8Zm0-2H690a10,10,0,0,1,10,10V54a10,10,0,0,1-10,10H554a10,10,0,0,1-10-10V10A10,10,0,0,1,554,0Z" transform="translate(5858 12098)" fill="#b3b3b3"/>
    <path id="Rectangle-4-Copy-7" d="M1276,2a8,8,0,0,0-8,8V54a8,8,0,0,0,8,8h136a8,8,0,0,0,8-8V10a8,8,0,0,0-8-8Zm0-2h136a10,10,0,0,1,10,10V54a10,10,0,0,1-10,10H1276a10,10,0,0,1-10-10V10A10,10,0,0,1,1276,0Z" transform="translate(5858 12098)" fill="#a42a6a"/>
    <path id="Fill-5" d="M50.92,37.8l-.12.28a1.831,1.831,0,0,1-2.4.98l-.98-.4-.3-.122-1.06-.44-.12-.06v-.02a1.751,1.751,0,0,1-.86-2.3l.12-.26v-.022a1.688,1.688,0,0,1,.76-.858.324.324,0,0,1,.24-.1,1.691,1.691,0,0,1,1.4-.02L50,36Z" transform="translate(5858 12098)" fill="#fff" fill-rule="evenodd"/>
    <path id="Fill-7" d="M14.78,49.58l-.08-.28a1.826,1.826,0,0,1,1.24-2.262l2.44-.7a1.816,1.816,0,0,1,2.26,1.24l.1.3a1.828,1.828,0,0,1-1.26,2.262l-2.42.7a1.838,1.838,0,0,1-2.28-1.26" transform="translate(5858 12098)" fill="#fff" fill-rule="evenodd"/>
    <path id="Fill-20" d="M237.413,41.084h4.666a14.313,14.313,0,0,1-7.374,5.658,12.917,12.917,0,0,0,1.469-2.372A19.534,19.534,0,0,0,237.413,41.084Zm-6.746,0h4.42a17.163,17.163,0,0,1-.965,2.486c-1,2.052-2.226,3.329-3.455,3.756Zm-6.09,0H229v6.242c-1.229-.427-2.454-1.7-3.456-3.756A17.278,17.278,0,0,1,224.577,41.084Zm-6.4,0h4.664a19.449,19.449,0,0,0,1.239,3.285,12.809,12.809,0,0,0,1.469,2.372A14.3,14.3,0,0,1,218.177,41.084ZM238.4,34.407h5.966a13.939,13.939,0,0,1-1.277,5.008h-5.234A29.826,29.826,0,0,0,238.4,34.407Zm-7.736,0h5.479a27.428,27.428,0,0,1-.59,5.008h-4.889Zm-7.148,0H229v5.008h-4.89A27.519,27.519,0,0,1,223.519,34.407Zm-7.634,0h5.966a29.827,29.827,0,0,0,.544,5.008h-5.233A13.96,13.96,0,0,1,215.885,34.407Zm21.973-6.678h5.221a13.985,13.985,0,0,1,1.29,5.008H238.4A29.867,29.867,0,0,0,237.858,27.729Zm-7.191,0h4.889a27.447,27.447,0,0,1,.59,5.008h-5.479Zm-6.559,0H229v5.008h-5.479A27.538,27.538,0,0,1,224.108,27.729Zm-6.933,0h5.22a29.867,29.867,0,0,0-.544,5.008h-5.966A13.964,13.964,0,0,1,217.175,27.729Zm17.545-7.312a14.291,14.291,0,0,1,7.359,5.642h-4.666a19.743,19.743,0,0,0-1.239-3.3A12.823,12.823,0,0,0,234.72,20.417Zm-9.186,0a12.823,12.823,0,0,0-1.454,2.342,19.743,19.743,0,0,0-1.239,3.3h-4.664A14.278,14.278,0,0,1,225.534,20.417Zm5.133-.586c1.229.424,2.454,1.676,3.455,3.728a17.37,17.37,0,0,1,.965,2.5h-4.42Zm-1.669,0V26.06h-4.421a17.487,17.487,0,0,1,.965-2.5C226.544,21.507,227.769,20.255,229,19.831ZM230.128,18a15.995,15.995,0,0,0-.476,31.985,4.482,4.482,0,0,0,.476.015c.158,0,.319,0,.474-.015A15.995,15.995,0,0,0,230.128,18Z" transform="translate(5858 12098)" fill="#b3b3b3" fill-rule="evenodd"/>
    <path id="Fill-20-2" data-name="Fill-20" d="M962.132,41.969h5.208a15.99,15.99,0,0,1-8.23,6.365,14.529,14.529,0,0,0,1.64-2.669A22.1,22.1,0,0,0,962.132,41.969Zm-7.529,0h4.934a19.49,19.49,0,0,1-1.077,2.8c-1.118,2.308-2.486,3.745-3.857,4.225Zm-6.8,0h4.934v7.022c-1.372-.481-2.74-1.917-3.857-4.225A19.376,19.376,0,0,1,947.806,41.969Zm-7.144,0h5.206a22.1,22.1,0,0,0,1.382,3.7,14.529,14.529,0,0,0,1.64,2.669A15.977,15.977,0,0,1,940.662,41.969Zm22.575-7.512H969.9a15.764,15.764,0,0,1-1.425,5.634H962.63A33.885,33.885,0,0,0,963.237,34.457Zm-8.634,0h6.115a31.171,31.171,0,0,1-.658,5.634H954.6Zm-7.979,0h6.116v5.634h-5.458A31.259,31.259,0,0,1,946.624,34.457Zm-8.52,0h6.659a33.885,33.885,0,0,0,.607,5.634h-5.841A15.8,15.8,0,0,1,938.1,34.457Zm24.526-7.512h5.826a15.809,15.809,0,0,1,1.44,5.634h-6.659A33.927,33.927,0,0,0,962.63,26.945Zm-8.027,0h5.457a31.189,31.189,0,0,1,.658,5.634H954.6Zm-7.321,0h5.458v5.634h-6.116A31.277,31.277,0,0,1,947.282,26.945Zm-7.738,0h5.826a33.927,33.927,0,0,0-.607,5.634H938.1A15.809,15.809,0,0,1,939.544,26.945Zm19.583-8.226a15.966,15.966,0,0,1,8.213,6.348h-5.208a22.41,22.41,0,0,0-1.382-3.713A14.523,14.523,0,0,0,959.127,18.719Zm-10.254,0a14.523,14.523,0,0,0-1.623,2.635,22.41,22.41,0,0,0-1.382,3.713h-5.206A15.953,15.953,0,0,1,948.873,18.719Zm5.73-.659c1.371.477,2.739,1.885,3.857,4.194a19.737,19.737,0,0,1,1.077,2.813H954.6Zm-1.863,0v7.007h-4.934a19.621,19.621,0,0,1,1.077-2.813C950,19.946,951.368,18.537,952.74,18.06ZM954,16a18,18,0,0,0-.531,35.983A4.961,4.961,0,0,0,954,52c.177,0,.356,0,.529-.017A18,18,0,0,0,954,16Z" transform="translate(5858 12098)" fill="#a42a6a" fill-rule="evenodd"/>
    <path id="Combined-Shape" d="M391.6,19.283a1.293,1.293,0,0,1,.671,0h8.461a1.288,1.288,0,0,1,0,2.576h-5.983a11.625,11.625,0,0,1,2.2,4.136h3.787a1.288,1.288,0,0,1,0,2.576h-3.6c-.27,2.1-1.622,4.036-4.1,5.81.563.672.981,1.2,1.431,1.8a18.377,18.377,0,0,1,1.682,2.681,6.987,6.987,0,0,1,.849,3.069V47.42a1.288,1.288,0,0,1-2.576,0V41.936a4.652,4.652,0,0,0-.579-1.922,15.878,15.878,0,0,0-1.449-2.3c-.468-.634-.908-1.177-1.56-1.949-.234-.278-.34-.4-.406-.482h-6.465a1.288,1.288,0,1,1,0-2.576h6.712a1.305,1.305,0,0,1,.215.018c2.193-1.411,3.322-2.771,3.633-4.154H382.27a1.288,1.288,0,0,1,0-2.576h11.965a14.9,14.9,0,0,0-2.836-4.136H382.27a1.288,1.288,0,0,1,0-2.576Z" transform="translate(5858 12098)" fill="#b3b3b3"/>
    <path id="Rectangle-5" d="M14,31a1,1,0,0,0-1,1V52a1,1,0,0,0,1,1H50a1,1,0,0,0,1-1V32a1,1,0,0,0-1-1Zm0-1H50a2,2,0,0,1,2,2V52a2,2,0,0,1-2,2H14a2,2,0,0,1-2-2V32A2,2,0,0,1,14,30Z" transform="translate(5858 12098)" fill="#b3b3b3"/>
    <rect id="Rectangle" width="40" height="4" transform="translate(5870 12134)" fill="#b3b3b3"/>
    <rect id="Rectangle-2" width="8" height="4" rx="2" transform="translate(5874 12144)" fill="#b3b3b3"/>
    <path id="Combined-Shape-2" data-name="Combined-Shape" d="M770.08,39.244l4.177,1.52a1,1,0,0,0,1.282-.6l.684-1.879a1,1,0,0,0-.6-1.282l-5.638-2.052a.994.994,0,0,0-.664-.007l-1.248-7.074,14.3,5.205-4.1,11.276a2,2,0,0,1-2.564,1.2l-4.826-1.757Zm13.664-9.925L746.156,15.638l1.368-3.759a2,2,0,0,1,2.564-1.2L783.917,23a2,2,0,0,1,1.2,2.563ZM744.788,19.4l15.9,5.786-19.237,3.392Z" transform="translate(5858 12098)" fill="#a42a6a" fill-rule="evenodd"/>
    <path id="Rectangle-3" d="M731.78,27.791a1.5,1.5,0,0,0-1.5,1.5v20a1.5,1.5,0,0,0,1.5,1.5h36a1.5,1.5,0,0,0,1.5-1.5v-20a1.5,1.5,0,0,0-1.5-1.5Zm0-.5h36a2,2,0,0,1,2,2v20a2,2,0,0,1-2,2h-36a2,2,0,0,1-2-2v-20A2,2,0,0,1,731.78,27.291Z" transform="translate(5862.568 12228.795) rotate(-10)" fill="#a42a6a"/>
    <rect id="Rectangle-2-2" data-name="Rectangle" width="40" height="4" transform="translate(6587.043 12134.854) rotate(-10)" fill="#a42a6a"/>
    <rect id="Rectangle-2-3" data-name="Rectangle-2" width="8" height="4" rx="2" transform="translate(6592.719 12144.007) rotate(-10)" fill="#a42a6a"/>
    <path id="Combined-Shape-3" data-name="Combined-Shape" d="M1112.63,15.053a1.565,1.565,0,0,1,.81,0h10.19a1.55,1.55,0,0,1,0,3.1h-7.2a14.016,14.016,0,0,1,2.64,4.979h4.56a1.55,1.55,0,0,1,0,3.1h-4.34c-.33,2.526-1.95,4.858-4.94,6.993.68.809,1.18,1.439,1.72,2.172a22.549,22.549,0,0,1,2.03,3.227,8.5,8.5,0,0,1,1.02,3.694v6.6a1.55,1.55,0,1,1-3.1,0v-6.6a5.626,5.626,0,0,0-.7-2.314,18.775,18.775,0,0,0-1.74-2.766c-.57-.764-1.1-1.417-1.88-2.346-.28-.334-.41-.485-.49-.581h-7.78a1.55,1.55,0,0,1,0-3.1h8.08a1.617,1.617,0,0,1,.26.021c2.64-1.7,4-3.335,4.37-5h-14.73a1.55,1.55,0,0,1,0-3.1h14.4a17.935,17.935,0,0,0-3.41-4.979h-10.99a1.55,1.55,0,0,1,0-3.1Z" transform="translate(5858 12098)" fill="#a42a6a"/>
    <path id="Combined-Shape-4" data-name="Combined-Shape" d="M595.048,36c-.37,1.364-.735,2.729-1.109,4.092-.677,2.465-1.365,4.926-2.03,7.394-.087.322-.217.444-.552.431-.625-.025-1.253-.007-1.922-.007a3.08,3.08,0,0,1,.049-.312q1.567-5.694,3.137-11.387a2.082,2.082,0,0,1,.084-.211Zm-7.123,2.428H576.2a3.259,3.259,0,0,1,.052-.349c.157-.577.326-1.151.475-1.731.053-.2.152-.3.362-.28.119.01.239,0,.358,0h12.2c.873,0,1.212.428.985,1.276q-.61,2.269-1.248,4.53a1.637,1.637,0,0,1-1.774,1.348c-3.307,0-6.614.007-9.921-.009a.512.512,0,0,0-.6.46c-.339,1.305-.714,2.6-1.059,3.905-.079.3-.2.438-.531.419-.519-.029-1.041-.006-1.561-.009-.116,0-.231-.017-.385-.028.03-.15.047-.265.078-.377.577-2.1,1.165-4.192,1.728-6.293a.5.5,0,0,1,.575-.447q5.367.022,10.735.015c.654,0,.583.076.761-.572.133-.482.271-.963.4-1.446C587.866,38.728,587.885,38.612,587.925,38.428ZM560.771,45.6c.178.011.3.026.43.026,2.852,0,5.7,0,8.557.007a.449.449,0,0,0,.522-.388c.783-2.876,1.582-5.748,2.374-8.622.153-.554.149-.555.709-.556h1.8c-.029.163-.041.288-.074.406q-1.435,5.207-2.876,10.413c-.241.875-.534,1.1-1.428,1.1q-5.858,0-11.713-.008a1.425,1.425,0,0,1-.735-.185c-.4-.257-.377-.672-.263-1.085l1.923-6.952c.31-1.122.629-2.242.927-3.367a.37.37,0,0,1,.427-.329c.659.014,1.318,0,2.054,0C562.52,39.267,561.652,42.412,560.771,45.6ZM576,29.847q.429-1.564.856-3.128l-.087-.062-3.436,3.251-.128-.065,4.342-15.706h.138l1.7,3.385c.342-1.213.651-2.3.995-3.521.18.325.3.531.411.745,1.14,2.271,2.272,4.546,3.424,6.811a.583.583,0,0,1-.132.822q-3.879,3.655-7.736,7.334a2.988,2.988,0,0,1-.265.2Z" transform="translate(5858 12098)" fill="#b3b3b3" fill-rule="evenodd"/>
    <path id="Combined-Shape-5" data-name="Combined-Shape" d="M1304.65,21.512,1306.73,14l4.62,8.85-9.53,8.85,2.09-7.512-8.09,7.512,4.91-17.7Zm14.58,17.076c-.42,1.525-.82,3.051-1.24,4.574-.76,2.755-1.53,5.506-2.27,8.264-.1.36-.24.5-.62.482-.7-.028-1.4-.008-2.15-.008.03-.147.03-.251.06-.349q1.755-6.364,3.5-12.727c.03-.081.07-.157.1-.236Zm-7.96,2.713h-13.11c.03-.181.03-.289.06-.39.18-.645.37-1.287.53-1.934.06-.229.17-.333.41-.313.13.011.26,0,.4,0h13.63c.97,0,1.35.479,1.1,1.426-.45,1.69-.92,3.377-1.39,5.063a1.837,1.837,0,0,1-1.99,1.507c-3.69,0-7.39.007-11.09-.01a.569.569,0,0,0-.66.514c-.38,1.459-.8,2.907-1.19,4.365-.08.332-.22.489-.59.468-.58-.033-1.16-.007-1.74-.01-.13,0-.26-.019-.43-.032.03-.168.05-.3.08-.421.65-2.344,1.3-4.685,1.93-7.033a.56.56,0,0,1,.65-.5q6,.025,11.99.017c.74,0,.66.085.86-.639.14-.539.3-1.077.45-1.616C1311.2,41.638,1311.22,41.508,1311.27,41.3Zm-30.35,8.019c.2.012.34.029.48.029,3.19,0,6.37,0,9.56.008a.511.511,0,0,0,.59-.434q1.3-4.822,2.65-9.636c.17-.619.16-.621.79-.621H1297c-.03.182-.05.321-.08.454q-1.605,5.82-3.22,11.639c-.27.978-.59,1.231-1.59,1.231q-6.555,0-13.09-.009a1.565,1.565,0,0,1-.82-.206c-.45-.287-.43-.751-.3-1.213.72-2.59,1.43-5.18,2.15-7.77.35-1.254.7-2.505,1.04-3.763a.405.405,0,0,1,.47-.368c.74.016,1.48.005,2.3.005C1282.87,42.239,1281.9,45.755,1280.92,49.32Z" transform="translate(5858 12098)" fill="#a42a6a" fill-rule="evenodd"/>
    <path id="Combined-Shape-6" data-name="Combined-Shape" d="M24.25,28.25v1.5H50A2.25,2.25,0,0,1,52.25,32v2a1.245,1.245,0,0,1,.75-.25h6A1.25,1.25,0,0,1,60.25,35v2A1.25,1.25,0,0,1,59,38.25H53a1.245,1.245,0,0,1-.75-.25v3.75H62A1.75,1.75,0,0,0,63.75,40V28.25Zm0-4.5h39.5V20A1.75,1.75,0,0,0,62,18.25H26A1.75,1.75,0,0,0,24.25,20Z" transform="translate(5858 12098)" fill="#b3b3b3" stroke="#b3b3b3" stroke-width="0.5" fill-rule="evenodd"/>
    <path id="All-Credit-_-Debit-C" data-name="All-Credit-&amp;-Debit-C" d="M78.123,19.388l-.437,1.52h3.173l-.437-1.52q-.3-.988-.579-2.033T79.3,15.284h-.076q-.266,1.045-.532,2.08T78.123,19.388ZM73.962,26l4.047-12.426h2.584L84.64,26H82.322l-.969-3.363h-4.18L76.2,26Zm14.155.228a1.849,1.849,0,0,1-1.653-.7,3.387,3.387,0,0,1-.475-1.919V12.586h2.185V23.72a.814.814,0,0,0,.152.561.443.443,0,0,0,.323.161h.142a.808.808,0,0,0,.2-.038l.285,1.634A2.948,2.948,0,0,1,88.117,26.228Zm5.149,0a1.849,1.849,0,0,1-1.653-.7,3.387,3.387,0,0,1-.475-1.919V12.586h2.185V23.72a.814.814,0,0,0,.152.561.443.443,0,0,0,.323.161h.143a.808.808,0,0,0,.2-.038l.285,1.634A2.948,2.948,0,0,1,93.266,26.228Zm11.97,0a5.786,5.786,0,0,1-2.2-.418,4.883,4.883,0,0,1-1.776-1.235,5.938,5.938,0,0,1-1.188-2.014,7.95,7.95,0,0,1-.437-2.736,7.827,7.827,0,0,1,.446-2.727,6.092,6.092,0,0,1,1.217-2.042,5.142,5.142,0,0,1,1.805-1.273,5.632,5.632,0,0,1,2.213-.437,4.459,4.459,0,0,1,2.09.475,5.561,5.561,0,0,1,1.5,1.1l-1.178,1.425a4.284,4.284,0,0,0-1.064-.788,2.775,2.775,0,0,0-1.292-.294,3.113,3.113,0,0,0-1.4.313,3.243,3.243,0,0,0-1.1.893,4.225,4.225,0,0,0-.722,1.415,6.437,6.437,0,0,0-.256,1.881,5.379,5.379,0,0,0,.921,3.335,2.98,2.98,0,0,0,2.5,1.206,3.053,3.053,0,0,0,1.482-.351,4.644,4.644,0,0,0,1.178-.922l1.178,1.387a5.323,5.323,0,0,1-1.739,1.34A5,5,0,0,1,105.236,26.228ZM111.031,26V16.671h1.805l.152,1.653h.076a3.91,3.91,0,0,1,1.2-1.4,2.632,2.632,0,0,1,2.508-.295l-.38,1.9a4.009,4.009,0,0,0-.456-.114,2.926,2.926,0,0,0-.513-.038,2.036,2.036,0,0,0-1.159.427,3.3,3.3,0,0,0-1.045,1.491V26Zm10.887.228a4.838,4.838,0,0,1-1.805-.333,4.29,4.29,0,0,1-1.463-.959,4.371,4.371,0,0,1-.978-1.53,5.635,5.635,0,0,1-.352-2.062,5.529,5.529,0,0,1,.361-2.052,4.714,4.714,0,0,1,.96-1.539,4.253,4.253,0,0,1,1.377-.969,3.931,3.931,0,0,1,1.6-.342,4.06,4.06,0,0,1,1.672.323,3.274,3.274,0,0,1,1.207.912,4.033,4.033,0,0,1,.731,1.406,6.138,6.138,0,0,1,.247,1.786,5.83,5.83,0,0,1-.029.608,3.917,3.917,0,0,1-.066.456h-5.928a3.014,3.014,0,0,0,.883,1.928,2.654,2.654,0,0,0,1.872.675,3.448,3.448,0,0,0,1.131-.181,5.029,5.029,0,0,0,1.035-.5l.741,1.368a6.7,6.7,0,0,1-1.482.722A5.157,5.157,0,0,1,121.918,26.228Zm-2.489-5.776h4.142a2.763,2.763,0,0,0-.466-1.7,1.679,1.679,0,0,0-1.434-.617,2.07,2.07,0,0,0-1.463.589A2.791,2.791,0,0,0,119.429,20.452Zm11.4,5.776a3.411,3.411,0,0,1-2.8-1.283,5.587,5.587,0,0,1-1.036-3.6,5.952,5.952,0,0,1,.333-2.052,4.779,4.779,0,0,1,.883-1.539,3.935,3.935,0,0,1,1.264-.969,3.359,3.359,0,0,1,1.472-.342,2.993,2.993,0,0,1,1.349.275,5.4,5.4,0,0,1,1.1.75l-.076-1.5V12.586H135.5V26H133.7l-.152-1.007h-.076a4.939,4.939,0,0,1-1.2.874A3.049,3.049,0,0,1,130.829,26.228Zm.532-1.805a2.606,2.606,0,0,0,1.957-1.045V19.027a3.089,3.089,0,0,0-.959-.608,2.713,2.713,0,0,0-.941-.171,1.893,1.893,0,0,0-1.539.8,3.619,3.619,0,0,0-.627,2.28,4.068,4.068,0,0,0,.542,2.309A1.782,1.782,0,0,0,131.361,24.423ZM138.277,26V16.671h2.185V26Zm1.1-10.963a1.392,1.392,0,0,1-.969-.342,1.146,1.146,0,0,1-.38-.893,1.175,1.175,0,0,1,.38-.9,1.511,1.511,0,0,1,1.938,0,1.175,1.175,0,0,1,.38.9,1.146,1.146,0,0,1-.38.893A1.392,1.392,0,0,1,139.379,15.037Zm7.163,11.191a3.407,3.407,0,0,1-1.377-.247,2.33,2.33,0,0,1-.912-.694,2.85,2.85,0,0,1-.513-1.064,5.43,5.43,0,0,1-.162-1.377V18.4h-1.33V16.766l1.444-.1.266-2.546h1.824v2.546h2.375V18.4h-2.375v4.446q0,1.634,1.311,1.634a2.3,2.3,0,0,0,.5-.057,2.339,2.339,0,0,0,.466-.152l.38,1.615a7.265,7.265,0,0,1-.865.238A4.894,4.894,0,0,1,146.542,26.228Zm10.488,0a4.7,4.7,0,0,1-1.663-.276,3.85,3.85,0,0,1-1.244-.741,3.164,3.164,0,0,1-.788-1.1,3.425,3.425,0,0,1-.276-1.378,3.312,3.312,0,0,1,.19-1.159,3.532,3.532,0,0,1,.522-.941,4.963,4.963,0,0,1,.76-.779q.427-.351.9-.674a8.13,8.13,0,0,1-.589-1.406,4.551,4.551,0,0,1-.209-1.33,3.286,3.286,0,0,1,.219-1.207,2.8,2.8,0,0,1,.636-.978,3.16,3.16,0,0,1,.988-.665,3.22,3.22,0,0,1,1.292-.247,2.726,2.726,0,0,1,2,.722,2.574,2.574,0,0,1,.732,1.919,2.729,2.729,0,0,1-.228,1.121,3.633,3.633,0,0,1-.608.941,6.582,6.582,0,0,1-.864.808q-.485.38-1,.741a12.956,12.956,0,0,0,1.3,1.51,15.05,15.05,0,0,0,1.529,1.34,9.11,9.11,0,0,0,.912-1.51,10.511,10.511,0,0,0,.665-1.8h2.014a13.889,13.889,0,0,1-.874,2.261,13.128,13.128,0,0,1-1.254,2.052,9.874,9.874,0,0,0,1.178.636,4.853,4.853,0,0,0,1.064.351l-.551,1.786a8.734,8.734,0,0,1-1.482-.5,11.424,11.424,0,0,1-1.539-.826,6.078,6.078,0,0,1-1.672.969A5.687,5.687,0,0,1,157.03,26.228Zm-.57-9.8a3.072,3.072,0,0,0,.133.884,7.123,7.123,0,0,0,.361.94,8.278,8.278,0,0,0,1.311-1.007,1.653,1.653,0,0,0,.532-1.235,1.473,1.473,0,0,0-.228-.836.867.867,0,0,0-.779-.342,1.2,1.2,0,0,0-.959.437A1.727,1.727,0,0,0,156.46,16.424Zm.836,8.113a2.743,2.743,0,0,0,1.017-.2,4.552,4.552,0,0,0,.978-.542A19.806,19.806,0,0,1,157.7,22.3a14.953,14.953,0,0,1-1.358-1.644,4.744,4.744,0,0,0-.864.9,1.739,1.739,0,0,0-.333,1.036A1.778,1.778,0,0,0,155.757,24,2.251,2.251,0,0,0,157.3,24.537ZM75.577,50V37.574H78.9a6.14,6.14,0,0,1,4.446,1.539,6.134,6.134,0,0,1,1.6,4.617,8.282,8.282,0,0,1-.409,2.717,5.212,5.212,0,0,1-1.178,1.967A4.919,4.919,0,0,1,81.5,49.6a7.2,7.2,0,0,1-2.479.4Zm2.2-1.786h.969a3.788,3.788,0,0,0,2.916-1.093,4.847,4.847,0,0,0,1.017-3.391A4.6,4.6,0,0,0,81.657,40.4,3.89,3.89,0,0,0,78.75,39.36h-.969Zm13.471,2.014a4.839,4.839,0,0,1-1.805-.333,4.287,4.287,0,0,1-1.463-.959,4.376,4.376,0,0,1-.979-1.529,5.65,5.65,0,0,1-.352-2.062,5.535,5.535,0,0,1,.361-2.052,4.708,4.708,0,0,1,.96-1.539,4.251,4.251,0,0,1,1.377-.969,3.933,3.933,0,0,1,1.6-.342,4.06,4.06,0,0,1,1.672.323,3.262,3.262,0,0,1,1.206.912,4.012,4.012,0,0,1,.731,1.406,6.148,6.148,0,0,1,.247,1.786q0,.323-.029.608a4.058,4.058,0,0,1-.066.456H88.782a3.012,3.012,0,0,0,.883,1.929,2.653,2.653,0,0,0,1.872.674,3.441,3.441,0,0,0,1.131-.181,5.025,5.025,0,0,0,1.035-.5l.741,1.368a6.709,6.709,0,0,1-1.482.722A5.154,5.154,0,0,1,91.252,50.228Zm-2.489-5.776H92.9a2.767,2.767,0,0,0-.465-1.7A1.68,1.68,0,0,0,91,42.134a2.069,2.069,0,0,0-1.463.589A2.792,2.792,0,0,0,88.763,44.452Zm12.654,5.776a2.994,2.994,0,0,1-1.3-.313,4.531,4.531,0,0,1-1.245-.9h-.057l-.19.988H96.895V36.586H99.08v3.458L99.023,41.6a5.454,5.454,0,0,1,1.282-.836,3.326,3.326,0,0,1,1.416-.323,3.518,3.518,0,0,1,1.558.333,3.229,3.229,0,0,1,1.159.95,4.364,4.364,0,0,1,.722,1.492,7.18,7.18,0,0,1,.247,1.957,6.408,6.408,0,0,1-.332,2.138,4.981,4.981,0,0,1-.884,1.586,3.805,3.805,0,0,1-1.273.988A3.467,3.467,0,0,1,101.417,50.228Zm-.456-1.805a1.9,1.9,0,0,0,1.558-.807,3.876,3.876,0,0,0,.627-2.4,4.2,4.2,0,0,0-.475-2.185,1.666,1.666,0,0,0-1.539-.779,3.03,3.03,0,0,0-2.052,1.045v4.351a3.016,3.016,0,0,0,.979.608A2.718,2.718,0,0,0,100.961,48.423ZM107.592,50V40.671h2.185V50Zm1.1-10.963a1.392,1.392,0,0,1-.969-.342,1.146,1.146,0,0,1-.38-.893,1.175,1.175,0,0,1,.38-.9,1.511,1.511,0,0,1,1.938,0,1.175,1.175,0,0,1,.38.9,1.146,1.146,0,0,1-.38.893A1.392,1.392,0,0,1,108.694,39.037Zm7.163,11.191a3.415,3.415,0,0,1-1.378-.247,2.345,2.345,0,0,1-.912-.694,2.881,2.881,0,0,1-.513-1.064,5.477,5.477,0,0,1-.161-1.377V42.4h-1.33V40.766l1.444-.095.266-2.546H115.1v2.546h2.375V42.4H115.1v4.446q0,1.634,1.311,1.634a2.3,2.3,0,0,0,.5-.057,2.339,2.339,0,0,0,.466-.152l.38,1.615a7.3,7.3,0,0,1-.864.237A4.917,4.917,0,0,1,115.857,50.228Zm12.521,0a5.786,5.786,0,0,1-2.2-.418,4.9,4.9,0,0,1-1.777-1.235,5.952,5.952,0,0,1-1.187-2.014,7.957,7.957,0,0,1-.437-2.736,7.831,7.831,0,0,1,.446-2.727,6.108,6.108,0,0,1,1.217-2.042,5.142,5.142,0,0,1,1.805-1.273,5.632,5.632,0,0,1,2.213-.437,4.459,4.459,0,0,1,2.09.475,5.561,5.561,0,0,1,1.5,1.1l-1.178,1.425a4.284,4.284,0,0,0-1.064-.788,2.775,2.775,0,0,0-1.292-.295,3.113,3.113,0,0,0-1.4.313,3.243,3.243,0,0,0-1.1.893,4.225,4.225,0,0,0-.722,1.416,6.4,6.4,0,0,0-.256,1.881,5.379,5.379,0,0,0,.921,3.334,2.98,2.98,0,0,0,2.5,1.206,3.053,3.053,0,0,0,1.482-.351,4.643,4.643,0,0,0,1.178-.922l1.178,1.387a5.324,5.324,0,0,1-1.739,1.34A5,5,0,0,1,128.378,50.228Zm8.056,0a2.718,2.718,0,0,1-2-.75,2.664,2.664,0,0,1-.76-1.986,2.552,2.552,0,0,1,1.3-2.318,6.563,6.563,0,0,1,1.711-.7,15.611,15.611,0,0,1,2.479-.437,3.623,3.623,0,0,0-.1-.694,1.625,1.625,0,0,0-.285-.589,1.337,1.337,0,0,0-.523-.4,1.975,1.975,0,0,0-.8-.143,3.536,3.536,0,0,0-1.34.266,9.056,9.056,0,0,0-1.282.646l-.8-1.463a9.341,9.341,0,0,1,1.748-.855,5.94,5.94,0,0,1,2.09-.361,3.209,3.209,0,0,1,2.612,1.035,4.553,4.553,0,0,1,.865,2.993V50h-1.8l-.152-1.026h-.076a6.828,6.828,0,0,1-1.34.893A3.375,3.375,0,0,1,136.434,50.228Zm.7-1.71a2.054,2.054,0,0,0,1.036-.266,5.582,5.582,0,0,0,1-.76V45.4a9.984,9.984,0,0,0-1.6.3,4.61,4.61,0,0,0-1.045.427,1.523,1.523,0,0,0-.57.542,1.3,1.3,0,0,0-.171.646,1.067,1.067,0,0,0,.38.912A1.57,1.57,0,0,0,137.137,48.518ZM143.977,50V40.671h1.8l.152,1.653h.076a3.91,3.91,0,0,1,1.2-1.4,2.632,2.632,0,0,1,2.508-.295l-.38,1.9a4.01,4.01,0,0,0-.456-.114,2.926,2.926,0,0,0-.513-.038,2.036,2.036,0,0,0-1.159.427,3.3,3.3,0,0,0-1.045,1.492V50Zm10.165.228a3.414,3.414,0,0,1-2.8-1.283,5.593,5.593,0,0,1-1.035-3.6,5.952,5.952,0,0,1,.333-2.052,4.779,4.779,0,0,1,.883-1.539,3.952,3.952,0,0,1,1.263-.969,3.366,3.366,0,0,1,1.473-.342,2.993,2.993,0,0,1,1.349.275,5.4,5.4,0,0,1,1.1.751l-.076-1.5V36.586h2.185V50h-1.8l-.152-1.007h-.076a4.94,4.94,0,0,1-1.2.874A3.049,3.049,0,0,1,154.142,50.228Zm.532-1.805a2.606,2.606,0,0,0,1.957-1.045V43.027a3.081,3.081,0,0,0-.96-.608,2.7,2.7,0,0,0-.94-.171,1.893,1.893,0,0,0-1.539.8,3.619,3.619,0,0,0-.627,2.28,4.068,4.068,0,0,0,.542,2.308A1.782,1.782,0,0,0,154.674,48.423Zm9.519,1.805a5.177,5.177,0,0,1-1.91-.371,6.176,6.176,0,0,1-1.624-.921l1.026-1.406a5.929,5.929,0,0,0,1.245.77,3.246,3.246,0,0,0,1.339.276,1.68,1.68,0,0,0,1.121-.313,1.019,1.019,0,0,0,.361-.808.794.794,0,0,0-.171-.5,1.642,1.642,0,0,0-.456-.389,4.366,4.366,0,0,0-.646-.313c-.241-.1-.481-.193-.722-.295q-.456-.171-.931-.4A3.733,3.733,0,0,1,161.98,45a2.754,2.754,0,0,1-.608-.75,2.054,2.054,0,0,1-.238-1.016,2.526,2.526,0,0,1,.912-2.014,3.709,3.709,0,0,1,2.489-.779,4.3,4.3,0,0,1,1.748.342,6.518,6.518,0,0,1,1.349.779l-1.007,1.33a5.218,5.218,0,0,0-1-.58,2.625,2.625,0,0,0-1.055-.218,1.529,1.529,0,0,0-1.035.294.937.937,0,0,0-.333.732.744.744,0,0,0,.162.484,1.488,1.488,0,0,0,.427.352,4.351,4.351,0,0,0,.617.285q.353.133.732.266.476.171.95.389a3.907,3.907,0,0,1,.865.542,2.488,2.488,0,0,1,.627.789,2.423,2.423,0,0,1,.237,1.111,2.7,2.7,0,0,1-.237,1.131,2.621,2.621,0,0,1-.694.912,3.377,3.377,0,0,1-1.14.618A4.916,4.916,0,0,1,164.193,50.228Z" transform="translate(5858 12098)" fill="#888" fill-rule="evenodd"/>
    <path id="All-Credit-_-Debit-C-Copy" data-name="All-Credit-&amp;-Debit-C-Copy" d="M800.123,19.388l-.437,1.52h3.173l-.437-1.52q-.3-.988-.579-2.033t-.542-2.071h-.076q-.266,1.045-.532,2.08T800.123,19.388ZM795.962,26l4.047-12.426h2.584L806.64,26h-2.318l-.969-3.363h-4.18L798.2,26Zm14.155.228a1.849,1.849,0,0,1-1.653-.7,3.384,3.384,0,0,1-.475-1.919V12.586h2.185V23.72a.815.815,0,0,0,.152.561.442.442,0,0,0,.323.161h.143a.81.81,0,0,0,.2-.038l.285,1.634A2.948,2.948,0,0,1,810.117,26.228Zm5.149,0a1.849,1.849,0,0,1-1.653-.7,3.385,3.385,0,0,1-.475-1.919V12.586h2.185V23.72a.815.815,0,0,0,.152.561.443.443,0,0,0,.323.161h.142a.808.808,0,0,0,.2-.038l.285,1.634A2.948,2.948,0,0,1,815.266,26.228Zm11.97,0a5.786,5.786,0,0,1-2.2-.418,4.9,4.9,0,0,1-1.777-1.235,5.953,5.953,0,0,1-1.187-2.014,7.956,7.956,0,0,1-.437-2.736,7.808,7.808,0,0,1,.447-2.727,6.09,6.09,0,0,1,1.216-2.042,5.142,5.142,0,0,1,1.8-1.273,5.632,5.632,0,0,1,2.213-.437,4.459,4.459,0,0,1,2.09.475,5.561,5.561,0,0,1,1.5,1.1l-1.178,1.425a4.283,4.283,0,0,0-1.064-.788,2.775,2.775,0,0,0-1.292-.294,3.12,3.12,0,0,0-1.4.313,3.249,3.249,0,0,0-1.1.893,4.225,4.225,0,0,0-.722,1.415,6.4,6.4,0,0,0-.256,1.881,5.379,5.379,0,0,0,.921,3.335,2.98,2.98,0,0,0,2.5,1.206,3.053,3.053,0,0,0,1.482-.351,4.644,4.644,0,0,0,1.178-.922l1.178,1.387a5.324,5.324,0,0,1-1.739,1.34A5,5,0,0,1,827.236,26.228ZM833.031,26V16.671h1.8l.152,1.653h.076a3.91,3.91,0,0,1,1.2-1.4,2.632,2.632,0,0,1,2.508-.295l-.38,1.9a4.006,4.006,0,0,0-.456-.114,2.926,2.926,0,0,0-.513-.038,2.036,2.036,0,0,0-1.159.427,3.3,3.3,0,0,0-1.045,1.491V26Zm10.887.228a4.838,4.838,0,0,1-1.805-.333,4.29,4.29,0,0,1-1.463-.959,4.371,4.371,0,0,1-.978-1.53,5.635,5.635,0,0,1-.352-2.062,5.528,5.528,0,0,1,.361-2.052,4.713,4.713,0,0,1,.96-1.539,4.242,4.242,0,0,1,1.377-.969,3.931,3.931,0,0,1,1.6-.342,4.06,4.06,0,0,1,1.672.323,3.262,3.262,0,0,1,1.206.912,4.018,4.018,0,0,1,.732,1.406,6.139,6.139,0,0,1,.247,1.786c0,.215-.01.418-.028.608a4.1,4.1,0,0,1-.067.456h-5.928a3.014,3.014,0,0,0,.883,1.928,2.654,2.654,0,0,0,1.872.675,3.438,3.438,0,0,0,1.13-.181,5.012,5.012,0,0,0,1.036-.5l.741,1.368a6.7,6.7,0,0,1-1.482.722A5.157,5.157,0,0,1,843.918,26.228Zm-2.489-5.776h4.142a2.769,2.769,0,0,0-.465-1.7,1.682,1.682,0,0,0-1.435-.617,2.07,2.07,0,0,0-1.463.589A2.791,2.791,0,0,0,841.429,20.452Zm11.4,5.776a3.414,3.414,0,0,1-2.8-1.283,5.593,5.593,0,0,1-1.035-3.6,5.976,5.976,0,0,1,.332-2.052,4.8,4.8,0,0,1,.884-1.539,3.935,3.935,0,0,1,1.264-.969,3.359,3.359,0,0,1,1.472-.342,2.993,2.993,0,0,1,1.349.275,5.4,5.4,0,0,1,1.1.75l-.076-1.5V12.586H857.5V26h-1.8l-.152-1.007h-.076a4.939,4.939,0,0,1-1.2.874A3.05,3.05,0,0,1,852.829,26.228Zm.532-1.805a2.606,2.606,0,0,0,1.957-1.045V19.027a3.089,3.089,0,0,0-.959-.608,2.714,2.714,0,0,0-.941-.171,1.893,1.893,0,0,0-1.539.8,3.619,3.619,0,0,0-.627,2.28,4.068,4.068,0,0,0,.542,2.309A1.782,1.782,0,0,0,853.361,24.423ZM860.277,26V16.671h2.185V26Zm1.1-10.963a1.393,1.393,0,0,1-.969-.342,1.146,1.146,0,0,1-.38-.893,1.175,1.175,0,0,1,.38-.9,1.511,1.511,0,0,1,1.938,0,1.175,1.175,0,0,1,.38.9,1.146,1.146,0,0,1-.38.893A1.393,1.393,0,0,1,861.379,15.037Zm7.163,11.191a3.415,3.415,0,0,1-1.378-.247,2.335,2.335,0,0,1-.911-.694,2.851,2.851,0,0,1-.513-1.064,5.431,5.431,0,0,1-.162-1.377V18.4h-1.33V16.766l1.444-.1.266-2.546h1.824v2.546h2.375V18.4h-2.375v4.446q0,1.634,1.311,1.634a2.31,2.31,0,0,0,.5-.057,2.34,2.34,0,0,0,.466-.152l.38,1.615a7.245,7.245,0,0,1-.864.238A4.91,4.91,0,0,1,868.542,26.228Zm10.488,0a4.7,4.7,0,0,1-1.663-.276,3.851,3.851,0,0,1-1.244-.741,3.18,3.18,0,0,1-.789-1.1,3.441,3.441,0,0,1-.275-1.378,3.312,3.312,0,0,1,.19-1.159,3.53,3.53,0,0,1,.522-.941,4.963,4.963,0,0,1,.76-.779c.286-.234.586-.459.9-.674a8.135,8.135,0,0,1-.589-1.406,4.552,4.552,0,0,1-.209-1.33,3.306,3.306,0,0,1,.218-1.207,2.813,2.813,0,0,1,.637-.978,3.159,3.159,0,0,1,.988-.665,3.22,3.22,0,0,1,1.292-.247,2.73,2.73,0,0,1,2.005.722,2.577,2.577,0,0,1,.731,1.919,2.728,2.728,0,0,1-.228,1.121,3.633,3.633,0,0,1-.608.941,6.581,6.581,0,0,1-.864.808q-.484.38-1,.741a13.042,13.042,0,0,0,1.3,1.51,15.166,15.166,0,0,0,1.53,1.34,9.11,9.11,0,0,0,.912-1.51,10.511,10.511,0,0,0,.665-1.8h2.014a13.894,13.894,0,0,1-.874,2.261,13.13,13.13,0,0,1-1.254,2.052,9.871,9.871,0,0,0,1.178.636,4.854,4.854,0,0,0,1.064.351l-.551,1.786a8.732,8.732,0,0,1-1.482-.5,11.421,11.421,0,0,1-1.539-.826,6.079,6.079,0,0,1-1.672.969A5.687,5.687,0,0,1,879.03,26.228Zm-.57-9.8a3.072,3.072,0,0,0,.133.884,7.122,7.122,0,0,0,.361.94,8.279,8.279,0,0,0,1.311-1.007,1.653,1.653,0,0,0,.532-1.235,1.473,1.473,0,0,0-.228-.836.866.866,0,0,0-.779-.342,1.2,1.2,0,0,0-.959.437A1.727,1.727,0,0,0,878.46,16.424Zm.836,8.113a2.743,2.743,0,0,0,1.017-.2,4.552,4.552,0,0,0,.978-.542,19.624,19.624,0,0,1-1.586-1.491,14.842,14.842,0,0,1-1.359-1.644,4.744,4.744,0,0,0-.864.9,1.739,1.739,0,0,0-.333,1.036A1.778,1.778,0,0,0,877.757,24,2.251,2.251,0,0,0,879.3,24.537ZM797.577,50V37.574H800.9a6.14,6.14,0,0,1,4.446,1.539,6.135,6.135,0,0,1,1.6,4.617,8.291,8.291,0,0,1-.408,2.717,5.223,5.223,0,0,1-1.179,1.967,4.913,4.913,0,0,1-1.862,1.188,7.19,7.19,0,0,1-2.479.4Zm2.2-1.786h.969a3.789,3.789,0,0,0,2.917-1.093,4.85,4.85,0,0,0,1.016-3.391,4.6,4.6,0,0,0-1.026-3.325,3.89,3.89,0,0,0-2.907-1.045h-.969Zm13.471,2.014a4.838,4.838,0,0,1-1.8-.333,4.289,4.289,0,0,1-1.463-.959,4.387,4.387,0,0,1-.979-1.529,5.656,5.656,0,0,1-.351-2.062,5.528,5.528,0,0,1,.361-2.052,4.728,4.728,0,0,1,.959-1.539,4.257,4.257,0,0,1,1.378-.969,3.931,3.931,0,0,1,1.6-.342,4.06,4.06,0,0,1,1.672.323,3.262,3.262,0,0,1,1.206.912,4.018,4.018,0,0,1,.732,1.406,6.137,6.137,0,0,1,.247,1.786q0,.323-.029.608a3.928,3.928,0,0,1-.066.456h-5.928a3.009,3.009,0,0,0,.884,1.929,2.65,2.65,0,0,0,1.871.674,3.438,3.438,0,0,0,1.13-.181,5.011,5.011,0,0,0,1.036-.5l.741,1.368a6.7,6.7,0,0,1-1.482.722A5.157,5.157,0,0,1,813.252,50.228Zm-2.489-5.776h4.142a2.769,2.769,0,0,0-.465-1.7,1.682,1.682,0,0,0-1.435-.618,2.07,2.07,0,0,0-1.463.589A2.791,2.791,0,0,0,810.763,44.452Zm12.654,5.776a3,3,0,0,1-1.3-.313,4.554,4.554,0,0,1-1.244-.9h-.057l-.19.988H818.9V36.586h2.185v3.458l-.057,1.558a5.456,5.456,0,0,1,1.282-.836,3.326,3.326,0,0,1,1.416-.323,3.518,3.518,0,0,1,1.558.333,3.229,3.229,0,0,1,1.159.95,4.364,4.364,0,0,1,.722,1.492,7.178,7.178,0,0,1,.247,1.957,6.408,6.408,0,0,1-.332,2.138,4.981,4.981,0,0,1-.884,1.586,3.805,3.805,0,0,1-1.273.988A3.467,3.467,0,0,1,823.417,50.228Zm-.456-1.805a1.9,1.9,0,0,0,1.558-.807,3.875,3.875,0,0,0,.627-2.4,4.2,4.2,0,0,0-.475-2.185,1.666,1.666,0,0,0-1.539-.779,3.029,3.029,0,0,0-2.052,1.045v4.351a3.014,3.014,0,0,0,.978.608A2.729,2.729,0,0,0,822.961,48.423ZM829.592,50V40.671h2.185V50Zm1.1-10.963a1.393,1.393,0,0,1-.969-.342,1.146,1.146,0,0,1-.38-.893,1.175,1.175,0,0,1,.38-.9,1.511,1.511,0,0,1,1.938,0,1.175,1.175,0,0,1,.38.9,1.146,1.146,0,0,1-.38.893A1.393,1.393,0,0,1,830.694,39.037Zm7.163,11.191a3.415,3.415,0,0,1-1.378-.247,2.334,2.334,0,0,1-.911-.694,2.851,2.851,0,0,1-.513-1.064,5.431,5.431,0,0,1-.162-1.377V42.4h-1.33V40.766l1.444-.095.266-2.546H837.1v2.546h2.375V42.4H837.1v4.446q0,1.634,1.311,1.634a2.31,2.31,0,0,0,.5-.057,2.34,2.34,0,0,0,.466-.152l.38,1.615a7.246,7.246,0,0,1-.864.237A4.91,4.91,0,0,1,837.857,50.228Zm12.521,0a5.785,5.785,0,0,1-2.2-.418,4.883,4.883,0,0,1-1.776-1.235,5.937,5.937,0,0,1-1.188-2.014,7.956,7.956,0,0,1-.437-2.736,7.831,7.831,0,0,1,.446-2.727,6.107,6.107,0,0,1,1.216-2.042,5.151,5.151,0,0,1,1.8-1.273,5.641,5.641,0,0,1,2.214-.437,4.459,4.459,0,0,1,2.09.475,5.561,5.561,0,0,1,1.5,1.1l-1.178,1.425a4.284,4.284,0,0,0-1.064-.788,2.775,2.775,0,0,0-1.292-.295,3.113,3.113,0,0,0-1.4.313,3.23,3.23,0,0,0-1.1.893,4.171,4.171,0,0,0-.722,1.416,6.4,6.4,0,0,0-.257,1.881,5.373,5.373,0,0,0,.922,3.334,2.977,2.977,0,0,0,2.5,1.206,3.053,3.053,0,0,0,1.482-.351,4.644,4.644,0,0,0,1.178-.922l1.178,1.387a5.331,5.331,0,0,1-1.738,1.34A5,5,0,0,1,850.378,50.228Zm8.056,0a2.718,2.718,0,0,1-1.995-.75,2.664,2.664,0,0,1-.76-1.986,2.742,2.742,0,0,1,.313-1.32,2.7,2.7,0,0,1,.989-1,6.547,6.547,0,0,1,1.709-.7,15.645,15.645,0,0,1,2.48-.437,3.546,3.546,0,0,0-.1-.694,1.592,1.592,0,0,0-.284-.589,1.329,1.329,0,0,0-.523-.4,1.975,1.975,0,0,0-.8-.143,3.536,3.536,0,0,0-1.34.266,9,9,0,0,0-1.282.646l-.8-1.463a9.342,9.342,0,0,1,1.748-.855,5.94,5.94,0,0,1,2.09-.361,3.208,3.208,0,0,1,2.612,1.035,4.553,4.553,0,0,1,.865,2.993V50h-1.8l-.152-1.026h-.076a6.828,6.828,0,0,1-1.34.893A3.372,3.372,0,0,1,858.434,50.228Zm.7-1.71a2.047,2.047,0,0,0,1.035-.266,5.55,5.55,0,0,0,1-.76V45.4a9.985,9.985,0,0,0-1.6.3,4.61,4.61,0,0,0-1.045.427,1.523,1.523,0,0,0-.57.542,1.3,1.3,0,0,0-.171.646,1.066,1.066,0,0,0,.38.912A1.57,1.57,0,0,0,859.137,48.518ZM865.977,50V40.671h1.8l.152,1.653h.076a3.91,3.91,0,0,1,1.2-1.4,2.632,2.632,0,0,1,2.508-.295l-.38,1.9a4.013,4.013,0,0,0-.456-.114,2.927,2.927,0,0,0-.513-.038,2.036,2.036,0,0,0-1.159.427,3.3,3.3,0,0,0-1.045,1.492V50Zm10.165.228a3.414,3.414,0,0,1-2.8-1.283,5.593,5.593,0,0,1-1.035-3.6,5.976,5.976,0,0,1,.332-2.052,4.8,4.8,0,0,1,.884-1.539,3.934,3.934,0,0,1,1.264-.969,3.359,3.359,0,0,1,1.472-.342,2.993,2.993,0,0,1,1.349.275,5.4,5.4,0,0,1,1.1.751l-.076-1.5V36.586h2.185V50h-1.8l-.152-1.007h-.076a4.941,4.941,0,0,1-1.2.874A3.049,3.049,0,0,1,876.142,50.228Zm.532-1.805a2.606,2.606,0,0,0,1.957-1.045V43.027a3.089,3.089,0,0,0-.959-.608,2.714,2.714,0,0,0-.941-.171,1.893,1.893,0,0,0-1.539.8,3.619,3.619,0,0,0-.627,2.28,4.068,4.068,0,0,0,.542,2.308A1.783,1.783,0,0,0,876.674,48.423Zm9.519,1.805a5.168,5.168,0,0,1-1.909-.371,6.167,6.167,0,0,1-1.625-.921l1.026-1.406a5.929,5.929,0,0,0,1.245.77,3.246,3.246,0,0,0,1.339.276,1.68,1.68,0,0,0,1.121-.313,1.02,1.02,0,0,0,.361-.808.794.794,0,0,0-.171-.5,1.642,1.642,0,0,0-.456-.389,4.368,4.368,0,0,0-.646-.313c-.241-.1-.481-.193-.722-.295q-.456-.171-.931-.4a3.761,3.761,0,0,1-.846-.551,2.769,2.769,0,0,1-.607-.75,2.054,2.054,0,0,1-.238-1.016,2.526,2.526,0,0,1,.912-2.014,3.708,3.708,0,0,1,2.489-.779,4.3,4.3,0,0,1,1.748.342,6.518,6.518,0,0,1,1.349.779l-1.007,1.33a5.217,5.217,0,0,0-1-.58,2.625,2.625,0,0,0-1.055-.218,1.533,1.533,0,0,0-1.036.294.939.939,0,0,0-.332.732.744.744,0,0,0,.162.484,1.488,1.488,0,0,0,.427.352,4.352,4.352,0,0,0,.617.285q.352.133.732.266.476.171.95.389a3.908,3.908,0,0,1,.865.542,2.471,2.471,0,0,1,.626.789,2.41,2.41,0,0,1,.238,1.111,2.69,2.69,0,0,1-.238,1.131,2.606,2.606,0,0,1-.693.912,3.377,3.377,0,0,1-1.14.618A4.916,4.916,0,0,1,886.193,50.228Z" transform="translate(5858 12098)" fill="#a42a6a" fill-rule="evenodd"/>
    <path id="Net-banking" d="M259.577,26V13.574h2.261l3.876,6.992,1.273,2.641h.076q-.076-.969-.18-2.081t-.1-2.156v-5.4h2.109V26h-2.261l-3.876-6.992-1.273-2.641H261.4q.076.988.181,2.071t.1,2.128V26Zm16.264.228a4.837,4.837,0,0,1-1.8-.333,4.29,4.29,0,0,1-1.463-.959,4.371,4.371,0,0,1-.978-1.53,5.635,5.635,0,0,1-.352-2.062,5.529,5.529,0,0,1,.361-2.052,4.7,4.7,0,0,1,.96-1.539,4.242,4.242,0,0,1,1.377-.969,3.931,3.931,0,0,1,1.6-.342,4.06,4.06,0,0,1,1.672.323,3.262,3.262,0,0,1,1.206.912,4.018,4.018,0,0,1,.732,1.406,6.138,6.138,0,0,1,.247,1.786c0,.215-.01.418-.028.608a4.364,4.364,0,0,1-.067.456h-5.928a3.014,3.014,0,0,0,.883,1.928,2.654,2.654,0,0,0,1.872.675,3.448,3.448,0,0,0,1.131-.181,5.028,5.028,0,0,0,1.035-.5l.741,1.368a6.7,6.7,0,0,1-1.482.722A5.157,5.157,0,0,1,275.841,26.228Zm-2.489-5.776h4.142a2.769,2.769,0,0,0-.465-1.7,1.682,1.682,0,0,0-1.435-.617,2.07,2.07,0,0,0-1.463.589A2.791,2.791,0,0,0,273.352,20.452Zm11.229,5.776a3.415,3.415,0,0,1-1.378-.247,2.334,2.334,0,0,1-.911-.694,2.851,2.851,0,0,1-.513-1.064,5.43,5.43,0,0,1-.162-1.377V18.4h-1.33V16.766l1.444-.1L282,14.125h1.824v2.546H286.2V18.4h-2.375v4.446q0,1.634,1.311,1.634a2.3,2.3,0,0,0,.5-.057,2.361,2.361,0,0,0,.466-.152l.38,1.615a7.211,7.211,0,0,1-.865.238A4.9,4.9,0,0,1,284.581,26.228Zm-20.672,24a2.99,2.99,0,0,1-1.3-.313,4.542,4.542,0,0,1-1.245-.9h-.057l-.19.988h-1.729V36.586h2.185v3.458l-.057,1.558a5.455,5.455,0,0,1,1.282-.836,3.326,3.326,0,0,1,1.416-.323,3.518,3.518,0,0,1,1.558.333,3.229,3.229,0,0,1,1.159.95,4.364,4.364,0,0,1,.722,1.492,7.18,7.18,0,0,1,.247,1.957,6.382,6.382,0,0,1-.333,2.138,4.961,4.961,0,0,1-.883,1.586,3.805,3.805,0,0,1-1.273.988A3.467,3.467,0,0,1,263.909,50.228Zm-.456-1.805a1.9,1.9,0,0,0,1.558-.807,3.876,3.876,0,0,0,.627-2.4,4.2,4.2,0,0,0-.475-2.185,1.666,1.666,0,0,0-1.539-.779,3.03,3.03,0,0,0-2.052,1.045v4.351a3.018,3.018,0,0,0,.979.608A2.718,2.718,0,0,0,263.453,48.423Zm8.664,1.805a2.718,2.718,0,0,1-1.995-.75,2.664,2.664,0,0,1-.76-1.986,2.555,2.555,0,0,1,1.3-2.318,6.541,6.541,0,0,1,1.71-.7,15.611,15.611,0,0,1,2.479-.437,3.546,3.546,0,0,0-.1-.694,1.625,1.625,0,0,0-.285-.589,1.329,1.329,0,0,0-.523-.4,1.975,1.975,0,0,0-.8-.143,3.54,3.54,0,0,0-1.34.266,9,9,0,0,0-1.282.646l-.8-1.463a9.341,9.341,0,0,1,1.748-.855,5.94,5.94,0,0,1,2.09-.361,3.209,3.209,0,0,1,2.612,1.035,4.553,4.553,0,0,1,.865,2.993V50h-1.8l-.152-1.026h-.076a6.828,6.828,0,0,1-1.34.893A3.375,3.375,0,0,1,272.117,50.228Zm.7-1.71a2.047,2.047,0,0,0,1.035-.266,5.551,5.551,0,0,0,1-.76V45.4a9.984,9.984,0,0,0-1.6.3,4.609,4.609,0,0,0-1.045.427,1.523,1.523,0,0,0-.57.542,1.3,1.3,0,0,0-.171.646,1.066,1.066,0,0,0,.38.912A1.57,1.57,0,0,0,272.82,48.518ZM279.66,50V40.671h1.8l.152,1.254h.076a7.388,7.388,0,0,1,1.359-1.045,3.249,3.249,0,0,1,1.7-.437,2.5,2.5,0,0,1,2.185.959,4.687,4.687,0,0,1,.684,2.745V50h-2.185V44.433a2.9,2.9,0,0,0-.342-1.634,1.287,1.287,0,0,0-1.121-.475,1.963,1.963,0,0,0-1.073.294,6.831,6.831,0,0,0-1.055.865V50Zm10.64,0V36.586h2.147v8.379h.057l3.458-4.294h2.394l-3.192,3.8L298.679,50H296.3l-2.394-4.047-1.463,1.672V50Zm9.918,0V40.671H302.4V50Zm1.1-10.963a1.392,1.392,0,0,1-.969-.342,1.146,1.146,0,0,1-.38-.893,1.175,1.175,0,0,1,.38-.9,1.511,1.511,0,0,1,1.938,0,1.175,1.175,0,0,1,.38.9,1.146,1.146,0,0,1-.38.893A1.392,1.392,0,0,1,301.32,39.037ZM305.2,50V40.671H307l.152,1.254h.076a7.415,7.415,0,0,1,1.358-1.045,3.255,3.255,0,0,1,1.7-.437,2.5,2.5,0,0,1,2.185.959,4.687,4.687,0,0,1,.684,2.745V50h-2.185V44.433a2.9,2.9,0,0,0-.342-1.634,1.287,1.287,0,0,0-1.121-.475,1.969,1.969,0,0,0-1.074.294,6.876,6.876,0,0,0-1.054.865V50Zm13.889,4.123a7.439,7.439,0,0,1-1.549-.152,4.043,4.043,0,0,1-1.225-.456,2.387,2.387,0,0,1-.807-.76,1.987,1.987,0,0,1,.047-2.157,3.194,3.194,0,0,1,.988-.9V49.62a1.9,1.9,0,0,1-.6-.608,1.765,1.765,0,0,1-.237-.95,1.689,1.689,0,0,1,.314-1,3,3,0,0,1,.712-.731v-.076a3.319,3.319,0,0,1-.845-1,2.874,2.874,0,0,1-.371-1.472,3.165,3.165,0,0,1,1.112-2.479,3.442,3.442,0,0,1,1.168-.646,4.473,4.473,0,0,1,1.406-.218,3.944,3.944,0,0,1,.732.066,4.9,4.9,0,0,1,.636.162h3.344v1.615H322.2a2.2,2.2,0,0,1,.38.674,2.578,2.578,0,0,1,.152.9,3.192,3.192,0,0,1-.276,1.368,2.832,2.832,0,0,1-.75.988,3.3,3.3,0,0,1-1.121.608,4.483,4.483,0,0,1-1.387.209,3.6,3.6,0,0,1-.627-.057,3.116,3.116,0,0,1-.646-.19,1.979,1.979,0,0,0-.332.38.926.926,0,0,0-.124.513.721.721,0,0,0,.332.627,2.228,2.228,0,0,0,1.188.228h1.653a4.869,4.869,0,0,1,2.555.542,1.915,1.915,0,0,1,.865,1.757,2.535,2.535,0,0,1-.352,1.292,3.182,3.182,0,0,1-1,1.045,5.338,5.338,0,0,1-1.567.694A7.692,7.692,0,0,1,319.085,54.123Zm.114-8.455a1.541,1.541,0,0,0,1.14-.485,1.912,1.912,0,0,0,.475-1.4,1.882,1.882,0,0,0-.465-1.358,1.533,1.533,0,0,0-1.15-.485,1.577,1.577,0,0,0-1.159.475,1.85,1.85,0,0,0-.475,1.368,1.912,1.912,0,0,0,.475,1.4A1.562,1.562,0,0,0,319.2,45.668Zm.228,7.03a3.341,3.341,0,0,0,1.833-.447,1.265,1.265,0,0,0,.694-1.055.732.732,0,0,0-.428-.741,3.115,3.115,0,0,0-1.225-.19h-1.273a5.16,5.16,0,0,1-1.273-.133,1.559,1.559,0,0,0-.722,1.235,1.08,1.08,0,0,0,.636.979A3.668,3.668,0,0,0,319.427,52.7Z" transform="translate(5858 12098)" fill="#888" fill-rule="evenodd"/>
    <path id="Net-banking-Copy" d="M981.577,26V13.574h2.261l3.876,6.992,1.273,2.641h.076q-.076-.969-.18-2.081t-.1-2.156v-5.4h2.109V26h-2.261l-3.876-6.992-1.273-2.641H983.4q.077.988.18,2.071t.1,2.128V26Zm16.264.228a4.838,4.838,0,0,1-1.8-.333,4.29,4.29,0,0,1-1.463-.959,4.388,4.388,0,0,1-.979-1.53,5.656,5.656,0,0,1-.351-2.062,5.528,5.528,0,0,1,.361-2.052,4.711,4.711,0,0,1,.959-1.539,4.268,4.268,0,0,1,1.378-.969,3.931,3.931,0,0,1,1.6-.342,4.06,4.06,0,0,1,1.672.323,3.337,3.337,0,0,1,1.211.912,4.153,4.153,0,0,1,.73,1.406,6.317,6.317,0,0,1,.24,1.786c0,.215-.01.418-.02.608s-.05.342-.07.456h-5.929a3.01,3.01,0,0,0,.884,1.928,2.65,2.65,0,0,0,1.871.675,3.438,3.438,0,0,0,1.13-.181,4.948,4.948,0,0,0,1.034-.5l.74,1.368a6.526,6.526,0,0,1-1.479.722A5.157,5.157,0,0,1,997.841,26.228Zm-2.489-5.776h4.142a2.769,2.769,0,0,0-.465-1.7,1.682,1.682,0,0,0-1.435-.617,2.07,2.07,0,0,0-1.463.589A2.791,2.791,0,0,0,995.352,20.452Zm11.228,5.776a3.462,3.462,0,0,1-1.38-.247,2.4,2.4,0,0,1-.91-.694,2.973,2.973,0,0,1-.51-1.064,5.342,5.342,0,0,1-.16-1.377V18.4h-1.33V16.766l1.44-.1.27-2.546h1.82v2.546h2.38V18.4h-2.38v4.446c0,1.089.44,1.634,1.31,1.634a2.4,2.4,0,0,0,.51-.057,2.343,2.343,0,0,0,.46-.152l.38,1.615a7.168,7.168,0,0,1-.86.238A4.976,4.976,0,0,1,1006.58,26.228Zm-20.671,24a3,3,0,0,1-1.3-.313,4.538,4.538,0,0,1-1.244-.9h-.057l-.19.988h-1.729V36.586h2.185v3.458l-.057,1.558a5.456,5.456,0,0,1,1.282-.836,3.326,3.326,0,0,1,1.416-.323,3.518,3.518,0,0,1,1.558.333,3.229,3.229,0,0,1,1.159.95,4.364,4.364,0,0,1,.722,1.492,7.178,7.178,0,0,1,.247,1.957,6.408,6.408,0,0,1-.332,2.138,4.982,4.982,0,0,1-.884,1.586,3.8,3.8,0,0,1-1.273.988A3.467,3.467,0,0,1,985.909,50.228Zm-.456-1.805a1.9,1.9,0,0,0,1.558-.807,3.875,3.875,0,0,0,.627-2.4,4.2,4.2,0,0,0-.475-2.185,1.666,1.666,0,0,0-1.539-.779,3.029,3.029,0,0,0-2.052,1.045v4.351a3.014,3.014,0,0,0,.978.608A2.724,2.724,0,0,0,985.453,48.423Zm8.664,1.805a2.718,2.718,0,0,1-1.995-.75,2.664,2.664,0,0,1-.76-1.986,2.55,2.55,0,0,1,1.3-2.318,6.547,6.547,0,0,1,1.709-.7,15.647,15.647,0,0,1,2.48-.437,3.546,3.546,0,0,0-.105-.694,1.591,1.591,0,0,0-.284-.589,1.329,1.329,0,0,0-.523-.4,1.974,1.974,0,0,0-.8-.143,3.527,3.527,0,0,0-1.339.266,9.014,9.014,0,0,0-1.283.646l-.8-1.463a9.339,9.339,0,0,1,1.748-.855,5.94,5.94,0,0,1,2.09-.361,3.212,3.212,0,0,1,2.613,1.035,4.558,4.558,0,0,1,.864,2.993V50h-1.805l-.152-1.026h-.076a6.852,6.852,0,0,1-1.339.893A3.383,3.383,0,0,1,994.117,50.228Zm.7-1.71a2.054,2.054,0,0,0,1.036-.266,5.583,5.583,0,0,0,1-.76V45.4a9.982,9.982,0,0,0-1.6.3,4.611,4.611,0,0,0-1.045.427,1.522,1.522,0,0,0-.57.542,1.3,1.3,0,0,0-.171.646,1.067,1.067,0,0,0,.38.912A1.57,1.57,0,0,0,994.82,48.518ZM1001.66,50V40.671h1.81l.15,1.254h.07a7.394,7.394,0,0,1,1.36-1.045,3.272,3.272,0,0,1,1.7-.437,2.513,2.513,0,0,1,2.19.959,4.734,4.734,0,0,1,.68,2.745V50h-2.18V44.433a2.877,2.877,0,0,0-.35-1.634,1.274,1.274,0,0,0-1.12-.475,1.965,1.965,0,0,0-1.07.294,7.235,7.235,0,0,0-1.06.865V50Zm10.64,0V36.586h2.15v8.379h.05l3.46-4.294h2.4l-3.2,3.8L1020.68,50h-2.38l-2.39-4.047-1.46,1.672V50Zm9.92,0V40.671h2.18V50Zm1.1-10.963a1.4,1.4,0,0,1-.97-.342,1.156,1.156,0,0,1-.38-.893,1.186,1.186,0,0,1,.38-.9,1.514,1.514,0,0,1,1.94,0,1.186,1.186,0,0,1,.38.9,1.156,1.156,0,0,1-.38.893A1.4,1.4,0,0,1,1023.32,39.037ZM1027.2,50V40.671h1.8l.15,1.254h.08a7.4,7.4,0,0,1,1.36-1.045,3.247,3.247,0,0,1,1.7-.437,2.482,2.482,0,0,1,2.18.959,4.656,4.656,0,0,1,.69,2.745V50h-2.19V44.433a2.889,2.889,0,0,0-.34-1.634,1.286,1.286,0,0,0-1.12-.475,1.942,1.942,0,0,0-1.07.294,6.75,6.75,0,0,0-1.06.865V50Zm13.88,4.123a7.357,7.357,0,0,1-1.54-.152,4.005,4.005,0,0,1-1.23-.456,2.453,2.453,0,0,1-.81-.76,1.969,1.969,0,0,1-.29-1.064,1.888,1.888,0,0,1,.34-1.093,3.236,3.236,0,0,1,.99-.9V49.62a1.923,1.923,0,0,1-.6-.608,1.748,1.748,0,0,1-.24-.95,1.7,1.7,0,0,1,.32-1,2.953,2.953,0,0,1,.71-.731v-.076a3.345,3.345,0,0,1-.85-1,2.944,2.944,0,0,1-.37-1.472,3.13,3.13,0,0,1,.31-1.425,3.21,3.21,0,0,1,.8-1.055,3.527,3.527,0,0,1,1.17-.646,4.5,4.5,0,0,1,1.41-.218,3.909,3.909,0,0,1,.73.066,5.142,5.142,0,0,1,.64.162h3.34v1.615h-1.71a2.224,2.224,0,0,1,.38.674,2.6,2.6,0,0,1,.15.9,3.252,3.252,0,0,1-.27,1.368,3.008,3.008,0,0,1-.75.988,3.333,3.333,0,0,1-1.12.608,4.516,4.516,0,0,1-1.39.209,3.706,3.706,0,0,1-.63-.057,3.064,3.064,0,0,1-.64-.19,2.331,2.331,0,0,0-.34.38.954.954,0,0,0-.12.513.722.722,0,0,0,.33.627,2.231,2.231,0,0,0,1.19.228h1.65a4.891,4.891,0,0,1,2.56.542,1.926,1.926,0,0,1,.86,1.757,2.485,2.485,0,0,1-.35,1.292,3.161,3.161,0,0,1-1,1.045,5.327,5.327,0,0,1-1.56.694A7.78,7.78,0,0,1,1041.08,54.123Zm.12-8.455a1.55,1.55,0,0,0,1.14-.485,2.272,2.272,0,0,0,.01-2.755,1.525,1.525,0,0,0-1.15-.485,1.578,1.578,0,0,0-1.16.475,1.84,1.84,0,0,0-.48,1.368,1.9,1.9,0,0,0,.48,1.4A1.562,1.562,0,0,0,1041.2,45.668Zm.23,7.03a3.326,3.326,0,0,0,1.83-.447,1.266,1.266,0,0,0,.69-1.055.733.733,0,0,0-.42-.741,3.167,3.167,0,0,0-1.23-.19h-1.27a5.106,5.106,0,0,1-1.27-.133,1.546,1.546,0,0,0-.73,1.235,1.091,1.091,0,0,0,.64.979A3.655,3.655,0,0,0,1041.43,52.7Z" transform="translate(5858 12098)" fill="#a42a6a" fill-rule="evenodd"/>
    <path id="Direct-Bank-Transfer" d="M420.577,26V13.574H423.9a6.14,6.14,0,0,1,4.446,1.539,6.134,6.134,0,0,1,1.6,4.617,8.263,8.263,0,0,1-.409,2.717,5.206,5.206,0,0,1-1.177,1.966A4.929,4.929,0,0,1,426.5,25.6a7.2,7.2,0,0,1-2.48.4Zm2.2-1.786h.969a3.789,3.789,0,0,0,2.917-1.093,4.85,4.85,0,0,0,1.016-3.392,4.6,4.6,0,0,0-1.026-3.325,3.89,3.89,0,0,0-2.907-1.045h-.969ZM432.262,26V16.671h2.185V26Zm1.1-10.963a1.393,1.393,0,0,1-.969-.342,1.146,1.146,0,0,1-.38-.893,1.175,1.175,0,0,1,.38-.9,1.511,1.511,0,0,1,1.938,0,1.175,1.175,0,0,1,.38.9,1.146,1.146,0,0,1-.38.893A1.392,1.392,0,0,1,433.364,15.037ZM437.24,26V16.671h1.805l.152,1.653h.076a3.91,3.91,0,0,1,1.2-1.4,2.632,2.632,0,0,1,2.508-.295l-.38,1.9a4.008,4.008,0,0,0-.456-.114,2.926,2.926,0,0,0-.513-.038,2.036,2.036,0,0,0-1.159.427,3.3,3.3,0,0,0-1.045,1.491V26Zm10.887.228a4.838,4.838,0,0,1-1.805-.333,4.29,4.29,0,0,1-1.463-.959,4.387,4.387,0,0,1-.979-1.53,5.656,5.656,0,0,1-.351-2.062,5.528,5.528,0,0,1,.361-2.052,4.728,4.728,0,0,1,.959-1.539,4.267,4.267,0,0,1,1.378-.969,3.931,3.931,0,0,1,1.6-.342,4.06,4.06,0,0,1,1.672.323,3.266,3.266,0,0,1,1.207.912,4.017,4.017,0,0,1,.731,1.406,6.139,6.139,0,0,1,.247,1.786,5.832,5.832,0,0,1-.029.608,3.92,3.92,0,0,1-.066.456h-5.928a3.014,3.014,0,0,0,.883,1.928,2.654,2.654,0,0,0,1.872.675,3.448,3.448,0,0,0,1.131-.181,5.029,5.029,0,0,0,1.035-.5l.741,1.368a6.7,6.7,0,0,1-1.482.722A5.157,5.157,0,0,1,448.127,26.228Zm-2.489-5.776h4.142a2.769,2.769,0,0,0-.465-1.7,1.682,1.682,0,0,0-1.435-.617,2.07,2.07,0,0,0-1.463.589A2.791,2.791,0,0,0,445.638,20.452Zm12.027,5.776a4.846,4.846,0,0,1-1.777-.323,4,4,0,0,1-1.434-.95,4.4,4.4,0,0,1-.95-1.539,5.869,5.869,0,0,1-.342-2.071,5.348,5.348,0,0,1,.38-2.071,4.544,4.544,0,0,1,1.026-1.539,4.469,4.469,0,0,1,1.492-.96,4.8,4.8,0,0,1,1.776-.332,3.706,3.706,0,0,1,1.568.3,5.1,5.1,0,0,1,1.168.741l-1.064,1.425a3.633,3.633,0,0,0-.75-.5,1.826,1.826,0,0,0-.808-.181,2.281,2.281,0,0,0-1.843.845,3.438,3.438,0,0,0-.7,2.271A3.437,3.437,0,0,0,456.1,23.6a2.213,2.213,0,0,0,1.8.845,2.321,2.321,0,0,0,1.035-.237,4.657,4.657,0,0,0,.884-.561l.893,1.444a4.686,4.686,0,0,1-3.04,1.14Zm7.98,0a3.415,3.415,0,0,1-1.378-.247,2.345,2.345,0,0,1-.912-.694,2.881,2.881,0,0,1-.513-1.064,5.476,5.476,0,0,1-.161-1.377V18.4h-1.33V16.766l1.444-.1.266-2.546h1.824v2.546h2.375V18.4h-2.375v4.446q0,1.634,1.311,1.634a2.3,2.3,0,0,0,.5-.057,2.34,2.34,0,0,0,.466-.152l.38,1.615a7.246,7.246,0,0,1-.864.238A4.917,4.917,0,0,1,465.645,26.228ZM473.207,26V13.574h3.971a9.065,9.065,0,0,1,1.776.161,4.511,4.511,0,0,1,1.407.513,2.512,2.512,0,0,1,.931.941,2.905,2.905,0,0,1,.332,1.444,3.155,3.155,0,0,1-.456,1.653,2.348,2.348,0,0,1-1.273,1.045v.076a3.19,3.19,0,0,1,1.7.96,2.814,2.814,0,0,1,.675,1.985,3.41,3.41,0,0,1-.361,1.615,3.252,3.252,0,0,1-1,1.14,4.388,4.388,0,0,1-1.51.674,7.822,7.822,0,0,1-1.9.219Zm2.2-7.3h1.577a2.991,2.991,0,0,0,1.891-.475,1.562,1.562,0,0,0,.579-1.273,1.4,1.4,0,0,0-.608-1.292,3.5,3.5,0,0,0-1.824-.38h-1.615Zm0,5.586h1.862a3.733,3.733,0,0,0,2.109-.5,1.743,1.743,0,0,0,.741-1.549A1.56,1.56,0,0,0,479.4,20.8a4.1,4.1,0,0,0-2.128-.446h-1.862Zm11.21,1.938a2.718,2.718,0,0,1-1.995-.75,2.664,2.664,0,0,1-.76-1.986,2.555,2.555,0,0,1,1.3-2.318,6.541,6.541,0,0,1,1.71-.7,15.611,15.611,0,0,1,2.479-.437,3.546,3.546,0,0,0-.1-.694,1.611,1.611,0,0,0-.286-.589,1.319,1.319,0,0,0-.522-.4,1.975,1.975,0,0,0-.8-.143,3.54,3.54,0,0,0-1.34.266,9,9,0,0,0-1.282.646l-.8-1.463a9.341,9.341,0,0,1,1.748-.855,5.94,5.94,0,0,1,2.09-.361,3.208,3.208,0,0,1,2.612,1.035,4.553,4.553,0,0,1,.865,2.993V26h-1.8l-.152-1.026h-.076a6.828,6.828,0,0,1-1.34.893A3.375,3.375,0,0,1,486.621,26.228Zm.7-1.71a2.047,2.047,0,0,0,1.035-.266,5.549,5.549,0,0,0,1-.76V21.4a9.985,9.985,0,0,0-1.6.3,4.61,4.61,0,0,0-1.045.427,1.523,1.523,0,0,0-.57.542,1.3,1.3,0,0,0-.171.646,1.066,1.066,0,0,0,.38.912A1.57,1.57,0,0,0,487.324,24.518ZM494.164,26V16.671h1.8l.152,1.254h.076a7.388,7.388,0,0,1,1.359-1.045,3.249,3.249,0,0,1,1.7-.437,2.5,2.5,0,0,1,2.185.959,4.688,4.688,0,0,1,.684,2.746V26H499.94V20.433A2.9,2.9,0,0,0,499.6,18.8a1.287,1.287,0,0,0-1.121-.475,1.963,1.963,0,0,0-1.073.295,6.831,6.831,0,0,0-1.055.865V26Zm10.64,0V12.586h2.147v8.379h.057l3.458-4.294h2.394l-3.192,3.8L513.183,26h-2.375l-2.394-4.047-1.463,1.672V26ZM423.085,50V39.436h-3.591V37.574h9.386v1.862h-3.591V50Zm6.84,0V40.671h1.805l.152,1.653h.076a3.91,3.91,0,0,1,1.2-1.4,2.632,2.632,0,0,1,2.508-.295l-.38,1.9a4.009,4.009,0,0,0-.456-.114,2.926,2.926,0,0,0-.513-.038,2.036,2.036,0,0,0-1.159.427A3.3,3.3,0,0,0,432.11,44.3V50Zm8.854.228a2.718,2.718,0,0,1-1.995-.75,2.664,2.664,0,0,1-.76-1.986,2.742,2.742,0,0,1,.313-1.32,2.711,2.711,0,0,1,.989-1,6.547,6.547,0,0,1,1.709-.7,15.646,15.646,0,0,1,2.48-.437,3.546,3.546,0,0,0-.105-.694,1.578,1.578,0,0,0-.285-.589,1.326,1.326,0,0,0-.522-.4,1.975,1.975,0,0,0-.8-.143,3.527,3.527,0,0,0-1.339.266,9.012,9.012,0,0,0-1.283.646l-.8-1.463a9.339,9.339,0,0,1,1.748-.855,5.94,5.94,0,0,1,2.09-.361,3.212,3.212,0,0,1,2.613,1.035,4.558,4.558,0,0,1,.864,2.993V50h-1.805l-.152-1.026h-.076a6.881,6.881,0,0,1-1.339.893A3.38,3.38,0,0,1,438.779,50.228Zm.7-1.71a2.047,2.047,0,0,0,1.035-.266,5.55,5.55,0,0,0,1-.76V45.4a9.984,9.984,0,0,0-1.6.3,4.61,4.61,0,0,0-1.045.427,1.523,1.523,0,0,0-.57.542,1.3,1.3,0,0,0-.171.646,1.067,1.067,0,0,0,.38.912A1.57,1.57,0,0,0,439.482,48.518ZM446.322,50V40.671h1.805l.152,1.254h.076a7.389,7.389,0,0,1,1.359-1.045,3.249,3.249,0,0,1,1.7-.437,2.5,2.5,0,0,1,2.185.959,4.687,4.687,0,0,1,.684,2.745V50H452.1V44.433a2.9,2.9,0,0,0-.342-1.634,1.287,1.287,0,0,0-1.121-.475,1.969,1.969,0,0,0-1.074.294,6.878,6.878,0,0,0-1.054.865V50Zm13.243.228a5.177,5.177,0,0,1-1.91-.371,6.192,6.192,0,0,1-1.624-.921l1.026-1.406a5.929,5.929,0,0,0,1.245.77,3.246,3.246,0,0,0,1.339.276,1.68,1.68,0,0,0,1.121-.313,1.019,1.019,0,0,0,.361-.808.794.794,0,0,0-.171-.5,1.642,1.642,0,0,0-.456-.389,4.367,4.367,0,0,0-.646-.313c-.241-.1-.481-.193-.722-.295q-.456-.171-.931-.4a3.733,3.733,0,0,1-.845-.551,2.776,2.776,0,0,1-.609-.75,2.065,2.065,0,0,1-.237-1.016,2.526,2.526,0,0,1,.912-2.014,3.709,3.709,0,0,1,2.489-.779,4.3,4.3,0,0,1,1.748.342,6.518,6.518,0,0,1,1.349.779L462,42.894a5.219,5.219,0,0,0-1-.58,2.625,2.625,0,0,0-1.055-.218,1.533,1.533,0,0,0-1.036.294.939.939,0,0,0-.332.732.749.749,0,0,0,.161.484,1.507,1.507,0,0,0,.428.352,4.317,4.317,0,0,0,.618.285q.351.133.731.266.475.171.95.389a3.877,3.877,0,0,1,.864.542,2.477,2.477,0,0,1,.628.789,2.423,2.423,0,0,1,.237,1.111,2.7,2.7,0,0,1-.237,1.131,2.621,2.621,0,0,1-.694.912,3.377,3.377,0,0,1-1.14.618A4.916,4.916,0,0,1,459.565,50.228ZM465.531,50V42.4h-1.254V40.766l1.254-.095V39.7a5.006,5.006,0,0,1,.171-1.34,2.753,2.753,0,0,1,.551-1.064,2.548,2.548,0,0,1,.959-.694,3.614,3.614,0,0,1,1.416-.247,4.665,4.665,0,0,1,1.71.323l-.418,1.634a2.508,2.508,0,0,0-1.026-.228q-1.178,0-1.178,1.577v1.007h1.824V42.4h-1.824V50Zm9.443.228a4.838,4.838,0,0,1-1.8-.333,4.29,4.29,0,0,1-1.463-.959,4.371,4.371,0,0,1-.978-1.529,5.635,5.635,0,0,1-.352-2.062,5.529,5.529,0,0,1,.361-2.052,4.7,4.7,0,0,1,.96-1.539,4.242,4.242,0,0,1,1.377-.969,3.931,3.931,0,0,1,1.6-.342,4.06,4.06,0,0,1,1.672.323,3.262,3.262,0,0,1,1.206.912,4.018,4.018,0,0,1,.732,1.406,6.138,6.138,0,0,1,.247,1.786c0,.215-.01.418-.028.608a4.364,4.364,0,0,1-.067.456H472.5a3.009,3.009,0,0,0,.884,1.929,2.65,2.65,0,0,0,1.871.674,3.438,3.438,0,0,0,1.13-.181,5.011,5.011,0,0,0,1.036-.5l.741,1.368a6.7,6.7,0,0,1-1.482.722A5.157,5.157,0,0,1,474.974,50.228Zm-2.489-5.776h4.142a2.763,2.763,0,0,0-.466-1.7,1.679,1.679,0,0,0-1.434-.618,2.07,2.07,0,0,0-1.463.589A2.791,2.791,0,0,0,472.485,44.452ZM480.617,50V40.671h1.8l.152,1.653h.076a3.91,3.91,0,0,1,1.2-1.4,2.632,2.632,0,0,1,2.508-.295l-.38,1.9a4.012,4.012,0,0,0-.456-.114,2.926,2.926,0,0,0-.513-.038,2.036,2.036,0,0,0-1.159.427A3.3,3.3,0,0,0,482.8,44.3V50Z" transform="translate(5858 12098)" fill="#888" fill-rule="evenodd"/>
    <path id="Paytm-_-UPI" data-name="Paytm-&amp;-UPI" d="M616.577,26V13.574h3.914a9.081,9.081,0,0,1,1.91.19,4.122,4.122,0,0,1,1.529.646,3.113,3.113,0,0,1,1.007,1.188,4.076,4.076,0,0,1,.361,1.815,4.119,4.119,0,0,1-.361,1.786,3.506,3.506,0,0,1-1,1.264,4.171,4.171,0,0,1-1.5.741,7.041,7.041,0,0,1-1.871.238h-1.786V26Zm2.2-6.327H620.4q2.736,0,2.736-2.261a1.762,1.762,0,0,0-.713-1.625,3.992,3.992,0,0,0-2.1-.447h-1.539Zm10.2,6.555a2.718,2.718,0,0,1-1.995-.75,2.664,2.664,0,0,1-.76-1.986,2.55,2.55,0,0,1,1.3-2.318,6.547,6.547,0,0,1,1.709-.7,15.647,15.647,0,0,1,2.48-.437,3.546,3.546,0,0,0-.1-.694,1.592,1.592,0,0,0-.284-.589,1.329,1.329,0,0,0-.523-.4,1.974,1.974,0,0,0-.8-.143,3.536,3.536,0,0,0-1.34.266,9.059,9.059,0,0,0-1.282.646l-.8-1.463a9.339,9.339,0,0,1,1.748-.855,5.94,5.94,0,0,1,2.09-.361,3.212,3.212,0,0,1,2.613,1.035,4.558,4.558,0,0,1,.864,2.993V26H632.1l-.152-1.026h-.076a6.829,6.829,0,0,1-1.34.893A3.375,3.375,0,0,1,628.984,26.228Zm.7-1.71a2.047,2.047,0,0,0,1.035-.266,5.548,5.548,0,0,0,1-.76V21.4a9.983,9.983,0,0,0-1.6.3,4.61,4.61,0,0,0-1.045.427,1.523,1.523,0,0,0-.57.542,1.3,1.3,0,0,0-.171.646,1.067,1.067,0,0,0,.38.912A1.57,1.57,0,0,0,629.687,24.518Zm7.467,5.32a4.091,4.091,0,0,1-.665-.047,3.2,3.2,0,0,1-.551-.142l.4-1.71c.089.025.193.054.314.086a1.371,1.371,0,0,0,.351.047,1.607,1.607,0,0,0,1.188-.446,2.833,2.833,0,0,0,.674-1.149l.171-.589-3.667-9.215h2.223l1.615,4.579q.208.608.409,1.282t.408,1.34h.076q.171-.646.352-1.32t.351-1.3l1.406-4.579h2.109l-3.382,9.747a10.006,10.006,0,0,1-.627,1.425,4.652,4.652,0,0,1-.789,1.073,3.092,3.092,0,0,1-1.025.684A3.516,3.516,0,0,1,637.154,29.838Zm12.065-3.61a3.415,3.415,0,0,1-1.378-.247,2.335,2.335,0,0,1-.911-.694,2.851,2.851,0,0,1-.513-1.064,5.431,5.431,0,0,1-.162-1.377V18.4h-1.33V16.766l1.444-.1.266-2.546h1.824v2.546h2.375V18.4h-2.375v4.446q0,1.634,1.311,1.634a2.31,2.31,0,0,0,.5-.057,2.34,2.34,0,0,0,.466-.152l.38,1.615a7.245,7.245,0,0,1-.864.238A4.91,4.91,0,0,1,649.219,26.228ZM652.791,26V16.671h1.8l.152,1.273h.076a6.538,6.538,0,0,1,1.283-1.064,2.875,2.875,0,0,1,1.567-.437,2.793,2.793,0,0,1,1.644.437,2.714,2.714,0,0,1,.94,1.235,7.507,7.507,0,0,1,1.387-1.2,2.874,2.874,0,0,1,1.615-.475,2.529,2.529,0,0,1,2.185.959,4.588,4.588,0,0,1,.7,2.746V26h-2.2V20.433a2.843,2.843,0,0,0-.351-1.634,1.25,1.25,0,0,0-1.074-.475,2.937,2.937,0,0,0-1.957,1.159V26h-2.185V20.433a2.843,2.843,0,0,0-.351-1.634,1.271,1.271,0,0,0-1.093-.475,2.937,2.937,0,0,0-1.957,1.159V26Zm22.933.228a4.686,4.686,0,0,1-1.662-.276,3.844,3.844,0,0,1-1.245-.741,3.163,3.163,0,0,1-.788-1.1,3.424,3.424,0,0,1-.276-1.378,3.312,3.312,0,0,1,.19-1.159,3.508,3.508,0,0,1,.523-.941,4.834,4.834,0,0,1,.76-.779q.426-.351.9-.674a8.13,8.13,0,0,1-.589-1.406,4.552,4.552,0,0,1-.209-1.33,3.286,3.286,0,0,1,.219-1.207,2.8,2.8,0,0,1,.636-.978,3.16,3.16,0,0,1,.988-.665,3.221,3.221,0,0,1,1.292-.247,2.726,2.726,0,0,1,2,.722,2.574,2.574,0,0,1,.732,1.919,2.729,2.729,0,0,1-.228,1.121,3.634,3.634,0,0,1-.608.941,6.59,6.59,0,0,1-.865.808q-.484.38-1,.741a12.959,12.959,0,0,0,1.3,1.51,15.05,15.05,0,0,0,1.529,1.34,9.106,9.106,0,0,0,.912-1.51,10.506,10.506,0,0,0,.665-1.8h2.014a13.888,13.888,0,0,1-.874,2.261,13.131,13.131,0,0,1-1.254,2.052,9.876,9.876,0,0,0,1.178.636,4.854,4.854,0,0,0,1.064.351l-.551,1.786a8.736,8.736,0,0,1-1.482-.5,11.428,11.428,0,0,1-1.539-.826,6.077,6.077,0,0,1-1.672.969A5.687,5.687,0,0,1,675.724,26.228Zm-.57-9.8a3.072,3.072,0,0,0,.133.884,7.115,7.115,0,0,0,.361.94,8.278,8.278,0,0,0,1.311-1.007,1.653,1.653,0,0,0,.532-1.235,1.474,1.474,0,0,0-.228-.836.866.866,0,0,0-.779-.342,1.2,1.2,0,0,0-.96.437A1.737,1.737,0,0,0,675.154,16.424Zm.836,8.113a2.734,2.734,0,0,0,1.016-.2,4.533,4.533,0,0,0,.979-.542A19.8,19.8,0,0,1,676.4,22.3a14.955,14.955,0,0,1-1.358-1.644,4.782,4.782,0,0,0-.865.9,1.744,1.744,0,0,0-.332,1.036A1.778,1.778,0,0,0,674.451,24,2.251,2.251,0,0,0,675.99,24.537ZM621.232,50.228a5.691,5.691,0,0,1-1.948-.313,3.644,3.644,0,0,1-1.482-1,4.633,4.633,0,0,1-.95-1.757,8.94,8.94,0,0,1-.332-2.612V37.574h2.2v7.144a6.873,6.873,0,0,0,.18,1.7,2.993,2.993,0,0,0,.513,1.111,1.892,1.892,0,0,0,.789.6,2.769,2.769,0,0,0,1.026.18,2.921,2.921,0,0,0,1.045-.18,1.929,1.929,0,0,0,.817-.6,2.986,2.986,0,0,0,.532-1.111,6.512,6.512,0,0,0,.19-1.7V37.574h2.109v6.973a9.174,9.174,0,0,1-.323,2.612,4.516,4.516,0,0,1-.941,1.757,3.634,3.634,0,0,1-1.481,1A5.69,5.69,0,0,1,621.232,50.228Zm7.79-.228V37.574h3.914a9.088,9.088,0,0,1,1.91.19,4.123,4.123,0,0,1,1.529.646,3.113,3.113,0,0,1,1.007,1.188,4.076,4.076,0,0,1,.361,1.814,4.119,4.119,0,0,1-.361,1.786,3.506,3.506,0,0,1-1,1.263,4.17,4.17,0,0,1-1.5.741,7.041,7.041,0,0,1-1.871.237h-1.786V50Zm2.2-6.327h1.615q2.736,0,2.736-2.261a1.766,1.766,0,0,0-.712-1.625,4,4,0,0,0-2.1-.446h-1.539ZM640.08,50V37.574h2.2V50Z" transform="translate(5858 12098)" fill="#888" fill-rule="evenodd"/>
    <path id="Paytm-_-UPI-Copy" data-name="Paytm-&amp;-UPI-Copy" d="M1338.58,26V13.574h3.91a9.046,9.046,0,0,1,1.91.19,4.114,4.114,0,0,1,1.53.646,3.121,3.121,0,0,1,1.01,1.188,4.088,4.088,0,0,1,.36,1.815,4.132,4.132,0,0,1-.36,1.786,3.546,3.546,0,0,1-1,1.264,4.176,4.176,0,0,1-1.5.741,7.06,7.06,0,0,1-1.87.238h-1.79V26Zm2.2-6.327h1.62q2.73,0,2.73-2.261a1.774,1.774,0,0,0-.71-1.625,4.023,4.023,0,0,0-2.1-.447h-1.54Zm10.2,6.555a2.715,2.715,0,0,1-1.99-.75,2.653,2.653,0,0,1-.76-1.986,2.538,2.538,0,0,1,1.3-2.318,6.569,6.569,0,0,1,1.71-.7,15.689,15.689,0,0,1,2.48-.437,3.872,3.872,0,0,0-.1-.694,1.7,1.7,0,0,0-.29-.589,1.334,1.334,0,0,0-.52-.4,1.992,1.992,0,0,0-.8-.143,3.532,3.532,0,0,0-1.34.266,8.928,8.928,0,0,0-1.28.646l-.8-1.463a9.269,9.269,0,0,1,1.75-.855,5.9,5.9,0,0,1,2.09-.361,3.217,3.217,0,0,1,2.61,1.035,4.537,4.537,0,0,1,.87,2.993V26h-1.81l-.15-1.026h-.08a6.771,6.771,0,0,1-1.34.893A3.36,3.36,0,0,1,1350.98,26.228Zm.71-1.71a2.029,2.029,0,0,0,1.03-.266,5.418,5.418,0,0,0,1-.76V21.4a10.088,10.088,0,0,0-1.6.3,4.466,4.466,0,0,0-1.04.427,1.465,1.465,0,0,0-.57.542,1.34,1.34,0,0,0-.17.646,1.048,1.048,0,0,0,.38.912A1.553,1.553,0,0,0,1351.69,24.518Zm7.46,5.32a4.053,4.053,0,0,1-.66-.047,3.261,3.261,0,0,1-.55-.142l.4-1.71c.09.025.19.054.31.086a1.387,1.387,0,0,0,.35.047,1.6,1.6,0,0,0,1.19-.446,2.771,2.771,0,0,0,.67-1.149l.18-.589-3.67-9.215h2.22l1.62,4.579c.14.405.27.833.4,1.282s.27.9.41,1.34h.08c.11-.431.23-.871.35-1.32s.24-.884.35-1.3l1.41-4.579h2.11l-3.38,9.747a10.993,10.993,0,0,1-.63,1.425,4.663,4.663,0,0,1-.79,1.073,3.1,3.1,0,0,1-1.03.684A3.48,3.48,0,0,1,1359.15,29.838Zm12.07-3.61a3.429,3.429,0,0,1-1.38-.247,2.323,2.323,0,0,1-.91-.694,2.814,2.814,0,0,1-.51-1.064,5.345,5.345,0,0,1-.16-1.377V18.4h-1.33V16.766l1.44-.1.27-2.546h1.82v2.546h2.37V18.4h-2.37v4.446c0,1.089.44,1.634,1.31,1.634a2.311,2.311,0,0,0,.5-.057,2.448,2.448,0,0,0,.47-.152l.38,1.615a6.866,6.866,0,0,1-.87.238A4.812,4.812,0,0,1,1371.22,26.228Zm3.57-.228V16.671h1.81l.15,1.273h.07a6.578,6.578,0,0,1,1.29-1.064,2.854,2.854,0,0,1,1.56-.437,2.8,2.8,0,0,1,1.65.437,2.756,2.756,0,0,1,.94,1.235,7.151,7.151,0,0,1,1.39-1.2,2.844,2.844,0,0,1,1.61-.475,2.506,2.506,0,0,1,2.18.959,4.579,4.579,0,0,1,.71,2.746V26h-2.21V20.433a2.8,2.8,0,0,0-.35-1.634,1.238,1.238,0,0,0-1.07-.475,2.944,2.944,0,0,0-1.96,1.159V26h-2.18V20.433a2.877,2.877,0,0,0-.35-1.634,1.284,1.284,0,0,0-1.1-.475,2.927,2.927,0,0,0-1.95,1.159V26Zm22.93.228a4.689,4.689,0,0,1-1.66-.276,3.778,3.778,0,0,1-1.24-.741,3.033,3.033,0,0,1-.79-1.1,3.328,3.328,0,0,1-.28-1.378,3.482,3.482,0,0,1,.19-1.159,3.4,3.4,0,0,1,.53-.941,4.63,4.63,0,0,1,.76-.779,10.778,10.778,0,0,1,.9-.674,7.694,7.694,0,0,1-.59-1.406,4.52,4.52,0,0,1-.21-1.33,3.205,3.205,0,0,1,.22-1.207,2.725,2.725,0,0,1,.64-.978,3.024,3.024,0,0,1,.98-.665,3.214,3.214,0,0,1,1.29-.247,2.744,2.744,0,0,1,2.01.722,2.565,2.565,0,0,1,.73,1.919,2.606,2.606,0,0,1-.23,1.121,3.42,3.42,0,0,1-.61.941,6.546,6.546,0,0,1-.86.808c-.32.253-.66.5-1,.741a13.737,13.737,0,0,0,1.3,1.51,15.626,15.626,0,0,0,1.53,1.34,8.87,8.87,0,0,0,.92-1.51,11.327,11.327,0,0,0,.66-1.8h2.02a13.653,13.653,0,0,1-.88,2.261,12.818,12.818,0,0,1-1.25,2.052,9.42,9.42,0,0,0,1.17.636,4.877,4.877,0,0,0,1.07.351l-.55,1.786a8.541,8.541,0,0,1-1.48-.5,11.314,11.314,0,0,1-1.54-.826,6.171,6.171,0,0,1-1.67.969A5.771,5.771,0,0,1,1397.72,26.228Zm-.57-9.8a3.047,3.047,0,0,0,.14.884,7.544,7.544,0,0,0,.36.94,8.452,8.452,0,0,0,1.31-1.007,1.669,1.669,0,0,0,.53-1.235,1.414,1.414,0,0,0-.23-.836.863.863,0,0,0-.78-.342,1.208,1.208,0,0,0-.96.437A1.769,1.769,0,0,0,1397.15,16.424Zm.84,8.113a2.782,2.782,0,0,0,1.02-.2,4.453,4.453,0,0,0,.97-.542,20.8,20.8,0,0,1-1.58-1.491,15.551,15.551,0,0,1-1.36-1.644,4.837,4.837,0,0,0-.86.9,1.692,1.692,0,0,0-.34,1.036,1.8,1.8,0,0,0,.61,1.406A2.264,2.264,0,0,0,1397.99,24.537Zm-54.76,25.691a5.722,5.722,0,0,1-1.95-.313,3.663,3.663,0,0,1-1.48-1,4.619,4.619,0,0,1-.95-1.757,8.981,8.981,0,0,1-.33-2.612V37.574h2.2v7.144a6.873,6.873,0,0,0,.18,1.7,2.994,2.994,0,0,0,.52,1.111,1.846,1.846,0,0,0,.79.6,2.722,2.722,0,0,0,1.02.18,2.962,2.962,0,0,0,1.05-.18,1.9,1.9,0,0,0,.81-.6,3.007,3.007,0,0,0,.54-1.111,6.828,6.828,0,0,0,.19-1.7V37.574h2.11v6.973a8.981,8.981,0,0,1-.33,2.612,4.476,4.476,0,0,1-.94,1.757,3.6,3.6,0,0,1-1.48,1A5.723,5.723,0,0,1,1343.23,50.228Zm7.79-.228V37.574h3.92a9.114,9.114,0,0,1,1.91.19,4.259,4.259,0,0,1,1.53.646,3.1,3.1,0,0,1,1,1.188,4.09,4.09,0,0,1,.36,1.814,4.133,4.133,0,0,1-.36,1.786,3.44,3.44,0,0,1-1,1.263,4.1,4.1,0,0,1-1.5.741,7.006,7.006,0,0,1-1.87.237h-1.78V50Zm2.21-6.327h1.61c1.83,0,2.74-.754,2.74-2.261a1.757,1.757,0,0,0-.72-1.625,3.958,3.958,0,0,0-2.09-.446h-1.54ZM1362.08,50V37.574h2.2V50Z" transform="translate(5858 12098)" fill="#a42a6a" fill-rule="evenodd"/>
    <path id="Direct-Bank-Transfer-Copy-3" d="M1142.58,26V13.574h3.32a6.16,6.16,0,0,1,4.45,1.539,6.148,6.148,0,0,1,1.59,4.617,8.352,8.352,0,0,1-.4,2.717,5.356,5.356,0,0,1-1.18,1.966,5.033,5.033,0,0,1-1.86,1.188,7.225,7.225,0,0,1-2.48.4Zm2.2-1.786h.97a3.8,3.8,0,0,0,2.92-1.093,4.885,4.885,0,0,0,1.01-3.392,4.623,4.623,0,0,0-1.02-3.325,3.913,3.913,0,0,0-2.91-1.045h-.97ZM1154.26,26V16.671h2.19V26Zm1.1-10.963a1.369,1.369,0,0,1-.96-.342,1.123,1.123,0,0,1-.38-.893,1.152,1.152,0,0,1,.38-.9,1.5,1.5,0,0,1,1.93,0,1.152,1.152,0,0,1,.38.9,1.123,1.123,0,0,1-.38.893A1.378,1.378,0,0,1,1155.36,15.037ZM1159.24,26V16.671h1.81l.15,1.653h.07a3.916,3.916,0,0,1,1.2-1.4,2.634,2.634,0,0,1,2.51-.295l-.38,1.9a4.277,4.277,0,0,0-.46-.114,2.922,2.922,0,0,0-.51-.038,2.044,2.044,0,0,0-1.16.427,3.253,3.253,0,0,0-1.04,1.491V26Zm10.89.228a4.86,4.86,0,0,1-1.81-.333,4.278,4.278,0,0,1-2.44-2.489,5.743,5.743,0,0,1-.35-2.062,5.549,5.549,0,0,1,.36-2.052,4.68,4.68,0,0,1,.96-1.539,4.265,4.265,0,0,1,1.38-.969,3.924,3.924,0,0,1,1.59-.342,4.024,4.024,0,0,1,1.67.323,3.181,3.181,0,0,1,1.21.912,3.981,3.981,0,0,1,.73,1.406,5.974,5.974,0,0,1,.25,1.786,5.813,5.813,0,0,1-.03.608,3.267,3.267,0,0,1-.07.456h-5.92a2.992,2.992,0,0,0,.88,1.928,2.653,2.653,0,0,0,1.87.675,3.426,3.426,0,0,0,1.13-.181,4.966,4.966,0,0,0,1.04-.5l.74,1.368a6.721,6.721,0,0,1-1.48.722A5.2,5.2,0,0,1,1170.13,26.228Zm-2.49-5.776h4.14a2.77,2.77,0,0,0-.47-1.7,1.666,1.666,0,0,0-1.43-.617,2.044,2.044,0,0,0-1.46.589A2.775,2.775,0,0,0,1167.64,20.452Zm12.03,5.776a4.827,4.827,0,0,1-1.78-.323,4.074,4.074,0,0,1-1.44-.95,4.5,4.5,0,0,1-.95-1.539,6.057,6.057,0,0,1-.34-2.071,5.4,5.4,0,0,1,.38-2.071,4.673,4.673,0,0,1,1.03-1.539,4.491,4.491,0,0,1,1.49-.96,4.816,4.816,0,0,1,1.78-.332,3.669,3.669,0,0,1,1.56.3,5,5,0,0,1,1.17.741l-1.06,1.425a4.016,4.016,0,0,0-.75-.5,1.844,1.844,0,0,0-.81-.181,2.277,2.277,0,0,0-1.84.845,3.435,3.435,0,0,0-.71,2.271,3.456,3.456,0,0,0,.7,2.252,2.207,2.207,0,0,0,1.79.845,2.324,2.324,0,0,0,1.04-.237,4.534,4.534,0,0,0,.88-.561l.89,1.444a4.665,4.665,0,0,1-3.03,1.14Zm7.98,0a3.4,3.4,0,0,1-1.38-.247,2.254,2.254,0,0,1-.91-.694,2.831,2.831,0,0,1-.52-1.064,5.345,5.345,0,0,1-.16-1.377V18.4h-1.33V16.766l1.45-.1.26-2.546h1.83v2.546h2.37V18.4h-2.37v4.446c0,1.089.43,1.634,1.31,1.634a2.31,2.31,0,0,0,.5-.057,2.446,2.446,0,0,0,.47-.152l.38,1.615a7.938,7.938,0,0,1-.87.238A4.881,4.881,0,0,1,1187.65,26.228Zm7.56-.228V13.574h3.97a8.986,8.986,0,0,1,1.77.161,4.521,4.521,0,0,1,1.41.513,2.482,2.482,0,0,1,.93.941,2.917,2.917,0,0,1,.33,1.444,3.187,3.187,0,0,1-.45,1.653,2.381,2.381,0,0,1-1.27,1.045v.076a3.209,3.209,0,0,1,1.7.96,2.811,2.811,0,0,1,.67,1.985,3.422,3.422,0,0,1-.36,1.615,3.2,3.2,0,0,1-1,1.14,4.38,4.38,0,0,1-1.51.674,7.771,7.771,0,0,1-1.9.219Zm2.2-7.3h1.58a3,3,0,0,0,1.89-.475,1.58,1.58,0,0,0,.58-1.273,1.394,1.394,0,0,0-.61-1.292,3.493,3.493,0,0,0-1.82-.38h-1.62Zm0,5.586h1.86a3.71,3.71,0,0,0,2.11-.5,1.729,1.729,0,0,0,.74-1.549,1.561,1.561,0,0,0-.72-1.435,4.094,4.094,0,0,0-2.13-.446h-1.86Zm11.21,1.938a2.7,2.7,0,0,1-1.99-.75,2.653,2.653,0,0,1-.76-1.986,2.538,2.538,0,0,1,1.3-2.318,6.568,6.568,0,0,1,1.71-.7,15.48,15.48,0,0,1,2.48-.437,3.872,3.872,0,0,0-.11-.694,1.526,1.526,0,0,0-.28-.589,1.367,1.367,0,0,0-.53-.4,1.94,1.94,0,0,0-.79-.143,3.494,3.494,0,0,0-1.34.266,8.43,8.43,0,0,0-1.28.646l-.8-1.463a9.478,9.478,0,0,1,1.74-.855,5.984,5.984,0,0,1,2.09-.361,3.225,3.225,0,0,1,2.62,1.035,4.592,4.592,0,0,1,.86,2.993V26h-1.8l-.16-1.026h-.07a7.075,7.075,0,0,1-1.34.893A3.39,3.39,0,0,1,1208.62,26.228Zm.7-1.71a2.066,2.066,0,0,0,1.04-.266,5.773,5.773,0,0,0,1-.76V21.4a9.867,9.867,0,0,0-1.6.3,4.466,4.466,0,0,0-1.04.427,1.464,1.464,0,0,0-.57.542,1.248,1.248,0,0,0-.18.646,1.075,1.075,0,0,0,.38.912A1.593,1.593,0,0,0,1209.32,24.518ZM1216.16,26V16.671h1.81l.15,1.254h.08a7.072,7.072,0,0,1,1.36-1.045,3.221,3.221,0,0,1,1.7-.437,2.494,2.494,0,0,1,2.18.959,4.656,4.656,0,0,1,.69,2.746V26h-2.19V20.433a2.889,2.889,0,0,0-.34-1.634,1.286,1.286,0,0,0-1.12-.475,1.975,1.975,0,0,0-1.08.295,6.728,6.728,0,0,0-1.05.865V26Zm10.64,0V12.586h2.15v8.379h.06l3.46-4.294h2.39l-3.19,3.8L1235.18,26h-2.37l-2.4-4.047-1.46,1.672V26Zm-81.72,24V39.436h-3.59V37.574h9.39v1.862h-3.59V50Zm6.85,0V40.671h1.8l.15,1.653h.08a3.916,3.916,0,0,1,1.2-1.4,2.616,2.616,0,0,1,2.5-.295l-.38,1.9a3.644,3.644,0,0,0-.45-.114,2.964,2.964,0,0,0-.52-.038,2.016,2.016,0,0,0-1.15.427,3.263,3.263,0,0,0-1.05,1.492V50Zm8.85.228a2.739,2.739,0,0,1-2-.75,2.692,2.692,0,0,1-.76-1.986,2.573,2.573,0,0,1,1.31-2.318,6.571,6.571,0,0,1,1.71-.7,15.48,15.48,0,0,1,2.48-.437,3.883,3.883,0,0,0-.11-.694,1.685,1.685,0,0,0-.28-.589,1.368,1.368,0,0,0-.53-.4,1.94,1.94,0,0,0-.79-.143,3.5,3.5,0,0,0-1.34.266,9.032,9.032,0,0,0-1.29.646l-.79-1.463a9.172,9.172,0,0,1,1.74-.855,5.984,5.984,0,0,1,2.09-.361,3.224,3.224,0,0,1,2.62,1.035,4.592,4.592,0,0,1,.86,2.993V50h-1.8l-.16-1.026h-.07a7.072,7.072,0,0,1-1.34.893A3.389,3.389,0,0,1,1160.78,50.228Zm.7-1.71a2.066,2.066,0,0,0,1.04-.266,5.777,5.777,0,0,0,1-.76V45.4a9.866,9.866,0,0,0-1.6.3,4.759,4.759,0,0,0-1.05.427,1.619,1.619,0,0,0-.57.542,1.338,1.338,0,0,0-.17.646,1.075,1.075,0,0,0,.38.912A1.593,1.593,0,0,0,1161.48,48.518ZM1168.32,50V40.671h1.81l.15,1.254h.07a7.749,7.749,0,0,1,1.36-1.045,3.272,3.272,0,0,1,1.7-.437,2.513,2.513,0,0,1,2.19.959,4.658,4.658,0,0,1,.68,2.745V50h-2.18V44.433a2.976,2.976,0,0,0-.34-1.634,1.3,1.3,0,0,0-1.12-.475,1.975,1.975,0,0,0-1.08.294,6.728,6.728,0,0,0-1.05.865V50Zm13.24.228a5.118,5.118,0,0,1-1.9-.371,6.231,6.231,0,0,1-1.63-.921l1.03-1.406a5.75,5.75,0,0,0,1.24.77,3.25,3.25,0,0,0,1.34.276,1.67,1.67,0,0,0,1.12-.313,1.022,1.022,0,0,0,.36-.808.76.76,0,0,0-.17-.5,1.558,1.558,0,0,0-.45-.389,4.468,4.468,0,0,0-.65-.313q-.36-.143-.72-.295a9.781,9.781,0,0,1-.93-.4,3.768,3.768,0,0,1-.85-.551,2.762,2.762,0,0,1-.61-.75,2.155,2.155,0,0,1-.23-1.016,2.518,2.518,0,0,1,.91-2.014,3.717,3.717,0,0,1,2.49-.779,4.337,4.337,0,0,1,1.75.342,6.682,6.682,0,0,1,1.34.779l-1,1.33a5.119,5.119,0,0,0-1-.58,2.652,2.652,0,0,0-1.06-.218,1.528,1.528,0,0,0-1.03.294.941.941,0,0,0-.33.732.732.732,0,0,0,.16.484,1.5,1.5,0,0,0,.43.352,4.1,4.1,0,0,0,.61.285c.24.089.48.177.74.266.31.114.63.244.94.389a3.871,3.871,0,0,1,.87.542,2.5,2.5,0,0,1,.63.789,2.531,2.531,0,0,1,.23,1.111,2.83,2.83,0,0,1-.23,1.131,2.579,2.579,0,0,1-.7.912,3.3,3.3,0,0,1-1.14.618A4.872,4.872,0,0,1,1181.56,50.228Zm5.97-.228V42.4h-1.25V40.766l1.25-.095V39.7a5.173,5.173,0,0,1,.17-1.34,2.879,2.879,0,0,1,.55-1.064,2.658,2.658,0,0,1,.96-.694,3.635,3.635,0,0,1,1.42-.247,4.677,4.677,0,0,1,1.71.323l-.42,1.634a2.492,2.492,0,0,0-1.03-.228q-1.17,0-1.17,1.577v1.007h1.82V42.4h-1.82V50Zm9.44.228a4.845,4.845,0,0,1-1.8-.333,4.175,4.175,0,0,1-1.46-.959,4.293,4.293,0,0,1-.98-1.529,6.136,6.136,0,0,1,.01-4.114,4.682,4.682,0,0,1,.96-1.539,4.226,4.226,0,0,1,1.37-.969,3.971,3.971,0,0,1,1.6-.342,4.057,4.057,0,0,1,1.67.323,3.261,3.261,0,0,1,1.21.912,3.983,3.983,0,0,1,.73,1.406,6.314,6.314,0,0,1,.25,1.786,5.813,5.813,0,0,1-.03.608,3.288,3.288,0,0,1-.07.456h-5.93a3.049,3.049,0,0,0,.89,1.929,2.653,2.653,0,0,0,1.87.674,3.468,3.468,0,0,0,1.13-.181,5.221,5.221,0,0,0,1.04-.5l.74,1.368a6.806,6.806,0,0,1-1.49.722A5.115,5.115,0,0,1,1196.97,50.228Zm-2.49-5.776h4.15a2.77,2.77,0,0,0-.47-1.7,1.679,1.679,0,0,0-1.43-.618,2.085,2.085,0,0,0-1.47.589A2.886,2.886,0,0,0,1194.48,44.452ZM1202.62,50V40.671h1.8l.15,1.653h.08a3.916,3.916,0,0,1,1.2-1.4,2.517,2.517,0,0,1,1.44-.485,2.472,2.472,0,0,1,1.06.19l-.38,1.9a3.637,3.637,0,0,0-.45-.114,2.922,2.922,0,0,0-.51-.038,2.019,2.019,0,0,0-1.16.427,3.262,3.262,0,0,0-1.05,1.492V50Z" transform="translate(5858 12098)" fill="#a42a6a" fill-rule="evenodd"/>
  </g>
</svg>
