<svg xmlns="http://www.w3.org/2000/svg" width="130.924" height="130.763" viewBox="0 0 130.924 130.763">
  <g id="Group_44" data-name="Group 44" transform="translate(1.001 1.015)">
    <g id="Group_43" data-name="Group 43" transform="translate(-0.001 0.016)">
      <path id="Path_117" data-name="Path 117" d="M128.628,103.553a17.565,17.565,0,0,0-20.077-9.238l-17.407,4.35C90.371,91.957,86.4,88,78.452,86.006L31.876,75.662c.145-1.02.258-2,.338-2.906a2.69,2.69,0,0,0-.827-2.186c-4.6-4.361-23.009-5.768-28.541-6.1A2.683,2.683,0,0,0,0,67.149v48.339a2.686,2.686,0,0,0,2.685,2.685H18.8a2.683,2.683,0,0,0,2.551-1.853c.07-.215.435-1.343.988-3.088L60.82,126.057c4.512,1.7,7.627,2.691,11.129,2.691,5.441,0,11.821-2.385,25.85-8.121l29.54-13.427a2.688,2.688,0,0,0,1.289-3.647ZM16.837,112.8H5.365V70.027c8.631.682,17.95,2.164,21.333,3.808C25.275,85.6,18.835,106.491,16.837,112.8Zm78.824,2.89c-22.59,9.26-23.369,8.975-33.042,5.306l-38.7-12.9c2.207-7.31,5.285-18.148,7.047-27.134l46.255,10.28c5.946,1.482,8.341,3.829,8.669,8.733l-5.156,1.284a13.36,13.36,0,0,1-5.887.145l-23.3-4.662a2.687,2.687,0,0,0-1.053,5.269l23.3,4.662a18.861,18.861,0,0,0,8.244-.2l7.2-1.8h.032l20.576-5.145a12.217,12.217,0,0,1,12.434,4.066ZM78.63,58.27a2.686,2.686,0,0,0,3.867,0l25.211-26.2a18.53,18.53,0,0,0,5.081-13.207c0-9.206-6.246-17.2-14.518-18.6A17.141,17.141,0,0,0,84.291,4.083a17.935,17.935,0,0,0-3.722,4.345,17.952,17.952,0,0,0-3.722-4.345A17.184,17.184,0,0,0,62.866.259c-8.282,1.4-14.528,9.4-14.528,19.1a18.193,18.193,0,0,0,5.081,12.708ZM63.763,5.555A12.5,12.5,0,0,1,65.8,5.383a11.661,11.661,0,0,1,7.578,2.8,12.866,12.866,0,0,1,4.5,9.861,2.685,2.685,0,1,0,5.371,0,12.848,12.848,0,0,1,4.5-9.861A11.678,11.678,0,0,1,97.363,5.56c5.731.961,10.054,6.687,10.054,13.8a13.032,13.032,0,0,1-3.577,8.98L80.563,52.534,57.285,28.349a13.4,13.4,0,0,1-3.577-9.485C53.708,12.241,58.032,6.521,63.763,5.555Z" transform="translate(0.001 -0.016)" stroke="#000" stroke-width="2"/>
    </g>
  </g>
</svg>
