<svg xmlns="http://www.w3.org/2000/svg" width="144.723" height="146.257" viewBox="0 0 144.723 146.257">
  <g id="Group_47" data-name="Group 47" transform="translate(-2258.63 -1989.368)">
    <path id="Path_118" data-name="Path 118" d="M58.947,85.346a10.148,10.148,0,0,1-6.377-2.327H52.36c-2.188-1.932-4.352-3.77-6.447-5.563l-3.1-2.653C24.757,59.558,11.7,48.549,11.7,31.093,11.7,13.986,24.245.58,40.328.58a26.486,26.486,0,0,1,18.62,7.471A26.486,26.486,0,0,1,77.567.58c16.083,0,28.628,13.406,28.628,30.513,0,13.336-8.239,23.018-16.292,30.722-4.073,3.887-8.658,7.8-13.965,12.312l-.884.745c-3,2.514-6.214,5.237-9.519,8.123l-.209.163a10.148,10.148,0,0,1-6.377,2.188ZM40.328,12.218c-9.519,0-16.944,8.286-16.944,18.875,0,12.033,10.148,20.6,26.975,34.772l3.189,2.746,5.446,4.655c2.653-2.327,5.469-4.655,8.612-7.308l.861-.722c5.144-4.4,9.612-8.193,13.429-11.847C89.53,46.082,94.6,39.425,94.6,31.07c0-10.59-7.425-18.876-16.944-18.876a15.966,15.966,0,0,0-13.825,8.1,5.865,5.865,0,0,1-4.888,2.583,5.8,5.8,0,0,1-4.818-2.56,16.036,16.036,0,0,0-13.8-8.1Z" transform="translate(2272.065 1988.788)"/>
    <path id="Path_119" data-name="Path 119" d="M145.107,59.57l-10.5-27.115L134.4,31.9a10.474,10.474,0,0,0-9.682-6.447H116.9a91.8,91.8,0,0,1-7.843,8.4c-1.117,1.071-2.327,2.165-3.491,3.235h18.27l9.31,22.716H13.584l9.31-22.716H40.978A108.576,108.576,0,0,1,29.6,25.45H22.079a10.5,10.5,0,0,0-9.636,6.332L1.481,59.477a8.844,8.844,0,0,0,2.327,9.705A9.077,9.077,0,0,0,10,71.51h.791v32.7a9.612,9.612,0,0,0,9.659,9.612H126.115a9.612,9.612,0,0,0,9.636-9.612V71.44h.745a9.31,9.31,0,0,0,6.191-2.327,8.821,8.821,0,0,0,2.421-9.542Zm-30.4,34.656a5.586,5.586,0,0,1-5.586,5.586H37.44a5.586,5.586,0,0,1-5.586-5.586V90.967a5.586,5.586,0,0,1,5.586-5.586h71.685a5.586,5.586,0,0,1,5.586,5.586Z" transform="translate(2257.729 2021.802)"/>
  </g>
</svg>
