<svg xmlns="http://www.w3.org/2000/svg" width="164.417" height="116.599" viewBox="0 0 164.417 116.599">
  <g id="Group_49" data-name="Group 49" transform="translate(-2766.473 -2005.738)">
    <g id="Group_46" data-name="Group 46" transform="translate(2763.873 1989.338)">
      <path id="Path_121" data-name="Path 121" d="M155.063,84.835a37.106,37.106,0,0,0,11.954-27.028c0-22.869-22.35-41.408-49.724-41.408A55.713,55.713,0,0,0,84.029,27.142,70.351,70.351,0,0,0,61.16,23.33c-32.4,0-58.56,21.83-58.56,48.684,0,11.954,5.2,23.216,14.553,32.052a74.582,74.582,0,0,1-7.277,15.073,8.58,8.58,0,0,0,.347,10.222,9.03,9.03,0,0,0,7.1,3.638,13.373,13.373,0,0,0,2.6-.347c10.4-3.119,19.924-8.836,26.681-13.514A69.685,69.685,0,0,0,61.333,120.7c20.271,0,38.289-8.663,48.857-21.83a52.024,52.024,0,0,0,7.45.52,56.484,56.484,0,0,0,12.128-1.213,82.734,82.734,0,0,0,22.176,11.088,11.7,11.7,0,0,0,2.426.347,8.205,8.205,0,0,0,6.584-3.292,8.346,8.346,0,0,0,.347-9.529C158.355,92.978,156.449,88.3,155.063,84.835ZM60.986,110.477a57.727,57.727,0,0,1-14.553-1.733,5.147,5.147,0,0,0-4.158.866c-4.5,3.292-13.167,9.009-22.7,12.3a97.129,97.129,0,0,0,7.97-17.845,5.221,5.221,0,0,0-1.559-5.544c-8.663-7.277-13.514-16.806-13.514-26.681,0-21.31,21.83-38.636,48.511-38.636S109.5,50.531,109.5,71.841,87.841,110.477,60.986,110.477Zm85.067-31.012a5.135,5.135,0,0,0-1.559,5.544A87.136,87.136,0,0,0,150.039,98a96.067,96.067,0,0,1-16.632-9.356,4.535,4.535,0,0,0-2.945-.866,2.948,2.948,0,0,0-1.213.173,45.205,45.205,0,0,1-11.954,1.386h-1.386a42.133,42.133,0,0,0,3.812-17.325c0-16.459-9.875-31.012-24.949-39.848a47.87,47.87,0,0,1,22.7-5.717c21.83,0,39.675,14.034,39.675,31.532C156.969,65.951,153.157,73.574,146.054,79.464Z" transform="translate(0 0)"/>
      <path id="Path_122" data-name="Path 122" d="M58.283,36.385a17.8,17.8,0,0,0-5.717-2.945,24.975,24.975,0,0,0-7.45-1.04,24.624,24.624,0,0,0-7.277,1.04,20.541,20.541,0,0,0-5.891,2.772,14.7,14.7,0,0,0-4.158,4.5,18.57,18.57,0,0,0-2.079,6.41A1.623,1.623,0,0,0,27.1,49.032h8.489a1.664,1.664,0,0,0,1.559-1.213,6.3,6.3,0,0,1,2.426-3.985A9.027,9.027,0,0,1,44.6,42.275a6.577,6.577,0,0,1,5.024,1.733,5.747,5.747,0,0,1,1.733,4.331,6.271,6.271,0,0,1-1.733,4.678,44.581,44.581,0,0,1-4.158,3.638,34.691,34.691,0,0,0-2.772,2.426,19.943,19.943,0,0,0-2.426,2.945,19.425,19.425,0,0,0-1.733,3.812,10.087,10.087,0,0,0-.52,3.292,1.553,1.553,0,0,0,1.559,1.559h7.97A1.642,1.642,0,0,0,49.1,69.3a5.7,5.7,0,0,1,1.386-3.465,20.612,20.612,0,0,1,3.292-3.465c1.04-.866,2.252-1.733,3.292-2.772a28.755,28.755,0,0,0,3.119-3.292,15.95,15.95,0,0,0,2.252-4.158,16.332,16.332,0,0,0,.866-5.2,13.555,13.555,0,0,0-1.213-6.064A15.981,15.981,0,0,0,58.283,36.385Z" transform="translate(16.91 11.721)"/>
      <path id="Path_123" data-name="Path 123" d="M39.1,57.6c-3.985,0-7.1,2.426-7.1,6.584s3.119,6.41,7.1,6.41,7.1-2.252,7.1-6.41C46.207,59.852,42.915,57.6,39.1,57.6Z" transform="translate(21.537 30.18)"/>
    </g>
  </g>
</svg>
