<svg xmlns="http://www.w3.org/2000/svg" width="123.254" height="114.993" viewBox="0 0 123.254 114.993">
  <g id="Group_50" data-name="Group 50" transform="translate(-2031.376 -2005)">
    <g id="Group_42" data-name="Group 42">
      <g id="Group_41" data-name="Group 41" transform="translate(2029 1998.505)">
        <path id="Path_114" data-name="Path 114" d="M67.9,83.9a5.57,5.57,0,0,0-5.5,5.6A5.723,5.723,0,0,0,68,95.1a5.434,5.434,0,0,0,5.6-5.7A5.591,5.591,0,0,0,67.9,83.9Z"/>
        <path id="Path_115" data-name="Path 115" d="M83,37.9c-10.9-9.6-33.5-5-35.1,11.1-.1.9.3,1.3,1.2,1.4,2.4.3,4.9.6,7.3.9,1.9.3,2,.3,2.6-1.6,3.9-12.7,22.8-5.9,15.3,4.4-3,4.1-8.3,5.6-10.4,10.4-1.7,3.7-1.7,9.1-1.6,13.1,0,.8.3,1.1,1.1,1.1h8.3c1.1.1,1.5-.3,1.5-1.4,0-2.1.1-4.1.2-6.2.2-2.8,2.3-4.4,4.2-6.1,4.6-4.1,10.7-8.8,10.7-15.5A15.159,15.159,0,0,0,83,37.9Z"/>
        <path id="Path_116" data-name="Path 116" d="M112.8,27.8A57.516,57.516,0,0,0,14,83.5L2.5,110.9a1.4,1.4,0,0,0,1.7,1.9A62.258,62.258,0,0,1,34,110.3a57.509,57.509,0,0,0,78.8-82.5ZM97.3,103.1a48.352,48.352,0,0,1-58.1.2l-1.7-1.2-2-.3a70.477,70.477,0,0,0-11.2-.9,78.872,78.872,0,0,0-8.4.5l7.4-17.7-1.1-3.2a48.9,48.9,0,0,1,84-47.3h0a48.733,48.733,0,0,1-8.9,69.9Z"/>
      </g>
    </g>
  </g>
</svg>
