<svg xmlns="http://www.w3.org/2000/svg" width="149.461" height="153.34" viewBox="0 0 149.461 153.34">
  <g id="Group_48" data-name="Group 48" transform="translate(-2515.018 -1987.368)">
    <g id="Group_45" data-name="Group 45" transform="translate(2434.721 1916.188)">
      <path id="Path_120" data-name="Path 120" d="M113.757,108.771H196.3c6.265,0,9.146,3.171,10.528,8.952l1.307,5.463c12.528-4.446,9.278-23.009-3.932-23.009H105.854c-13.211,0-16.461,18.563-3.932,23.009l1.307-5.463C104.6,112,107.447,108.771,113.757,108.771Zm27.11-28.339v-6a1.25,1.25,0,0,1,1.247-1.25h25.826a1.251,1.251,0,0,1,1.25,1.25v6h6.355A1.251,1.251,0,0,1,176,82.847l-20.427,9.863a1.252,1.252,0,0,1-1.083,0L133.969,82.8a1.247,1.247,0,0,1,.542-2.367ZM118.986,189.856c-.712,4.868-8.118,3.787-7.406-1.083l5.069-33.785c.712-4.868,8.118-3.787,7.406,1.083l-5.069,33.785Zm-15.78,12.174c-.9,4.832-8.253,3.459-7.349-1.375l8.843-46.343c.9-4.832,8.253-3.459,7.349,1.375l-8.843,46.343Zm105.511-76.413,18.216,76.159c3.755,15.7-5.809,20.743-20.02,20.743H103.144c-14.211,0-23.775-5.039-20.02-20.743l18.218-76.159c-15.4-5.148-11.641-27.94,4.512-27.94H204.2C220.355,97.678,224.117,120.47,208.716,125.618ZM105.647,118.3Q95.6,160.324,85.542,202.353c-3.354,14.034,5.063,17.67,17.6,17.67h59.592l4.578-108.754H113.757C108.652,111.268,106.75,113.682,105.647,118.3Zm81.857-7.031,12.82,108.754h6.587c12.541,0,20.956-3.636,17.6-17.67q-10.054-42.028-20.1-84.054c-1.109-4.64-3.039-7.031-8.11-7.031Z" stroke="#000" stroke-width="4"/>
    </g>
  </g>
</svg>
